<?xml version="1.0" encoding="UTF-8"?>
<svg version="1.1" xmlns="http://www.w3.org/2000/svg" width="1280" height="1280">
<path d="M0 0 C422.4 0 844.8 0 1280 0 C1280 422.4 1280 844.8 1280 1280 C857.6 1280 435.2 1280 0 1280 C0 857.6 0 435.2 0 0 Z " fill="#FEFEFE" transform="translate(0,0)"/>
<path d="M0 0 C5.61 0 11.22 0 17 0 C17.33 28.38 17.66 56.76 18 86 C20.64 83.36 23.28 80.72 26 78 C38.21543891 69.80880615 50.22732722 66.95257865 64.875 69.5 C79.1864565 73.43565054 90.63473219 83.23353579 98 96 C104.98752209 110.23789768 105.95082634 124.89254279 101 140 C95.99833284 153.84906063 87.17614775 164.38175174 74 171 C61.67468765 176.01997666 49.62345456 176.37855427 37 172 C29.26707238 168.68145753 23.56230034 164.27950239 18 158 C17.90912109 159.49853516 17.90912109 159.49853516 17.81640625 161.02734375 C17.73261719 162.31769531 17.64882813 163.60804688 17.5625 164.9375 C17.44068359 166.86916016 17.44068359 166.86916016 17.31640625 168.83984375 C17 172 17 172 16 173 C10.72 173 5.44 173 0 173 C0 115.91 0 58.82 0 0 Z " fill="#0A0A0A" transform="translate(927,522)"/>
<path d="M0 0 C2.61517005 1.86672071 4.71530259 3.71530259 7 6 C7 6.66 7 7.32 7 8 C8.485 8.495 8.485 8.495 10 9 C10.33 4.05 10.66 -0.9 11 -6 C16.28 -6 21.56 -6 27 -6 C27 27.33 27 60.66 27 95 C21.72 95 16.44 95 11 95 C11 90.05 11 85.1 11 80 C9.865625 81.03125 8.73125 82.0625 7.5625 83.125 C-4.42054532 93.53132883 -17.01089275 99.02542968 -33 98 C-43.67761913 96.4131498 -52.78904827 92.15976117 -60 84 C-60.61488281 83.38769531 -61.22976563 82.77539062 -61.86328125 82.14453125 C-72.70577838 70.93449185 -76.39274951 57.63864514 -76.29858398 42.44165039 C-75.93860234 28.25276338 -70.64464491 16.23077389 -60.9375 5.80859375 C-43.20459713 -10.74449905 -20.54910986 -12.0676213 0 0 Z " fill="#050505" transform="translate(749,599)"/>
<path d="M0 0 C9.68382953 5.26865979 16.15785069 12.31522951 20.12109375 22.6484375 C22.79938964 32.86167251 21.77118182 43.09204077 16.74609375 52.296875 C11.96977122 60.05351868 5.72711428 66.23653262 -2.96484375 69.33984375 C-12.7855704 71.4758834 -24.33180433 71.5404962 -33 66 C-41.26821493 59.90249637 -47.59717837 52.65595763 -49.71484375 42.35546875 C-51.13118039 30.65614004 -50.01465747 21.45078675 -43.1875 11.75 C-32.56321042 -1.45713692 -16.08915483 -7.86646869 0 0 Z " fill="#FCFCFC" transform="translate(739,610)"/>
<path d="M0 0 C8.17156936 5.72284992 14.08629181 14.6031569 16.2578125 24.375 C17.52736352 35.16618366 15.49551162 44.3780779 9.6328125 53.5625 C3.90786636 60.42599078 -2.28690753 66.18859244 -11.3671875 67.5625 C-23.14842353 68.52411166 -32.34172727 68.31884484 -41.7890625 60.578125 C-47.88171246 54.96332994 -53.76316602 47.18924045 -54.54418945 38.62060547 C-55.08223219 19.38396998 -55.08223219 19.38396998 -50.3671875 12.5625 C-49.86960937 11.79808594 -49.37203125 11.03367187 -48.859375 10.24609375 C-44.86956604 4.61396807 -40.40836152 0.85768583 -34.3671875 -2.4375 C-33.75359375 -2.7778125 -33.14 -3.118125 -32.5078125 -3.46875 C-21.76318743 -8.42780772 -9.68420254 -5.88083587 0 0 Z " fill="#FCFCFC" transform="translate(998.3671875,612.4375)"/>
<path d="M0 0 C5.61 0 11.22 0 17 0 C17.00410889 2.15901855 17.00821777 4.31803711 17.01245117 6.54248047 C17.02971353 13.70715497 17.07432284 20.87147598 17.13209057 28.03593254 C17.1662589 32.37623769 17.19145462 36.71619466 17.19555664 41.05664062 C17.19986156 45.25208393 17.22850388 49.44674314 17.27343178 53.64194107 C17.28633719 55.23571313 17.29073933 56.82957935 17.28615379 58.42339706 C17.26621253 67.46599491 17.50204869 75.35376381 23 83 C27.98454294 87.57415176 35.01036923 86.67945054 41.39453125 86.46875 C48.75461348 85.92456647 54.94903509 83.36154218 59.95703125 77.84375 C61.51839481 75.62517015 62.79283582 73.42712516 64 71 C64.5775 69.845 65.155 68.69 65.75 67.5 C68.77321003 59.03501193 69.32464245 51.04334833 69.4140625 42.08984375 C69.43342865 40.88179581 69.4527948 39.67374786 69.4727478 38.42909241 C69.5321742 34.59863177 69.578781 30.76814047 69.625 26.9375 C69.66321376 24.32876347 69.70226743 21.7200391 69.7421875 19.11132812 C69.83784536 12.74098503 69.92201227 6.37058293 70 0 C75.28 0 80.56 0 86 0 C86 33.33 86 66.66 86 101 C80.72 101 75.44 101 70 101 C69.67 96.38 69.34 91.76 69 87 C67.9275 88.36125 66.855 89.7225 65.75 91.125 C60.46981535 97.11361729 52.14603269 102.46508119 43.96630859 103.17700195 C41.43575703 103.24390404 38.9062916 103.28494603 36.375 103.3125 C35.07755859 103.35600586 35.07755859 103.35600586 33.75390625 103.40039062 C24.42910973 103.49126196 17.52907222 100.24460364 10.78125 93.8984375 C0.43720575 82.87386403 -0.5946545 68.58687718 -0.390625 54.19921875 C-0.38314352 52.62596871 -0.37745964 51.0527092 -0.37347412 49.47944641 C-0.35836738 45.38417796 -0.31921969 41.28949768 -0.2746582 37.19445801 C-0.23337789 32.9975581 -0.21539394 28.80056102 -0.1953125 24.60351562 C-0.15270655 16.40204676 -0.08248435 8.20116482 0 0 Z " fill="#080808" transform="translate(1058,593)"/>
<path d="M0 0 C7.24464332 6.30530545 12.13232754 15.16242126 15.41015625 24.09765625 C15.41015625 24.75765625 15.41015625 25.41765625 15.41015625 26.09765625 C2.80889799 27.2864542 2.80889799 27.2864542 -2.58984375 26.09765625 C-5.13261534 23.82396102 -6.00076852 21.89236855 -7.32421875 18.7734375 C-10.30637004 12.4685806 -17.76405279 8.29756096 -24.0859375 5.7578125 C-33.33622762 3.31896846 -43.1390321 4.79143665 -51.58984375 9.09765625 C-59.57081286 14.77127815 -66.30154468 21.99758391 -68.30859375 31.83984375 C-69.7527296 43.43304541 -68.18606237 53.4686699 -61.31640625 63.0625 C-58.47064872 66.4168884 -55.33585284 68.81958418 -51.58984375 71.09765625 C-50.92339844 71.51144531 -50.25695312 71.92523437 -49.5703125 72.3515625 C-42.08556887 76.33694547 -33.670852 76.25125251 -25.52734375 74.40234375 C-19.32946702 72.35360116 -11.69045798 69.26683006 -8.59790039 63.12890625 C-7.42542529 60.82531048 -6.36456443 58.98383805 -4.58984375 57.09765625 C-1.27360287 56.11259007 1.80025183 56.33223488 5.22265625 56.59765625 C6.10630859 56.63375 6.98996094 56.66984375 7.90039062 56.70703125 C10.07218597 56.80094672 12.2417374 56.94444118 14.41015625 57.09765625 C9.8215792 72.05946197 -0.05620722 81.66379968 -13.58984375 88.91015625 C-25.73547325 94.64349688 -39.57437195 94.85359127 -52.17871094 90.43041992 C-64.85085041 85.5132448 -75.49238889 75.22301326 -81.58984375 63.09765625 C-87.05382647 49.49485407 -87.74620275 33.03623282 -82.5078125 19.25 C-76.66130989 6.19224922 -66.35526622 -4.34187345 -53.109375 -9.953125 C-34.02683182 -16.69754143 -15.95577001 -11.72015082 0 0 Z " fill="#060606" transform="translate(164.58984375,603.90234375)"/>
<path d="M0 0 C5.28 0 10.56 0 16 0 C16.01458252 2.00231689 16.02916504 4.00463379 16.04418945 6.06762695 C16.09477611 12.72135668 16.1614118 19.37485826 16.23571491 26.02836323 C16.28023259 30.05803192 16.31952826 34.08760383 16.34643555 38.11743164 C16.372656 42.01448284 16.41318674 45.91115781 16.46318626 49.80797386 C16.47972945 51.28648343 16.49132115 52.76505789 16.49761391 54.24364662 C16.54290627 63.91741218 16.61557305 73.65042191 21.9375 82.0625 C27.36406103 87.16017854 33.68385634 86.47461305 40.7109375 86.31640625 C47.50913428 85.96118783 52.64053187 83.94912585 57.875 79.625 C67.7911228 67.37567183 69.24594975 54.00604393 69.4140625 38.671875 C69.43342865 37.55685608 69.4527948 36.44183716 69.4727478 35.29302979 C69.53188347 31.77876104 69.57866186 28.26445835 69.625 24.75 C69.66324067 22.34764303 69.70229581 19.94529887 69.7421875 17.54296875 C69.83752968 11.69541828 69.92180041 5.84780382 70 0 C75.28 0 80.56 0 86 0 C86 33.33 86 66.66 86 101 C80.72 101 75.44 101 70 101 C69.505 93.575 69.505 93.575 69 86 C68.05125 87.36125 67.1025 88.7225 66.125 90.125 C60.95019838 96.79031243 54.14430831 100.86442452 46 103 C42.87002241 103.29910191 39.76750255 103.3248526 36.625 103.3125 C35.81289062 103.32861328 35.00078125 103.34472656 34.1640625 103.36132812 C24.71406068 103.36890024 17.30230889 99.91738824 10 94 C2.35447455 86.25745011 -0.13217173 74.41268488 -0.11352539 63.91479492 C-0.11367142 63.22156128 -0.11381744 62.52832764 -0.1139679 61.81408691 C-0.11327451 59.53618171 -0.10550915 57.25835957 -0.09765625 54.98046875 C-0.09579003 53.39577784 -0.09436709 51.81108635 -0.09336853 50.22639465 C-0.08955943 46.0655049 -0.07974292 41.90465032 -0.06866455 37.74377441 C-0.05841582 33.49390132 -0.0538635 29.24402252 -0.04882812 24.99414062 C-0.03811916 16.66274251 -0.02053542 8.33137969 0 0 Z " fill="#050505" transform="translate(205,593)"/>
<path d="M0 0 C8.55553754 5.22032799 14.61856297 13.30020346 17.05540466 23.03007507 C17.59114618 26.40456351 17.61161564 29.63235492 17.60571289 33.05004883 C17.60585892 33.76278961 17.60600494 34.4755304 17.6061554 35.20986938 C17.60546182 37.5527049 17.5976955 39.89545972 17.58984375 42.23828125 C17.5879776 43.86781267 17.58655463 45.49734465 17.58555603 47.12687683 C17.58174638 51.40613364 17.57192938 55.68535626 17.56085205 59.96459961 C17.55060452 64.33511899 17.54605126 68.70564393 17.54101562 73.07617188 C17.53030568 81.64454865 17.51272149 90.21289113 17.4921875 98.78125 C12.2121875 98.78125 6.9321875 98.78125 1.4921875 98.78125 C1.4828418 96.64205078 1.47349609 94.50285156 1.46386719 92.29882812 C1.43001382 85.20999362 1.37441871 78.12144767 1.30828476 71.03284454 C1.26887113 66.73737621 1.23665288 62.442111 1.22119141 58.14648438 C1.20598423 53.99651102 1.17146759 49.84709631 1.12387848 45.69737244 C1.10910633 44.11869681 1.10114888 42.53994141 1.10030365 40.9611969 C1.1734615 29.28772245 1.1734615 29.28772245 -3.5078125 18.78125 C-8.66149546 13.88525119 -12.80202411 12.36048029 -19.7890625 12.53515625 C-27.90153022 13.26947445 -34.68720143 16.02322614 -40.5078125 21.78125 C-46.8238561 29.51518094 -50.55522812 38.36018343 -50.71313477 48.37597656 C-50.73307999 49.49683655 -50.75302521 50.61769653 -50.77357483 51.77252197 C-50.79028732 52.97680847 -50.80699982 54.18109497 -50.82421875 55.421875 C-50.84499985 56.65919373 -50.86578094 57.89651245 -50.88719177 59.17132568 C-50.94147122 62.45263691 -50.99173029 65.73397733 -51.04003906 69.01538086 C-51.09037342 72.36708104 -51.1460761 75.7186872 -51.20117188 79.0703125 C-51.30825763 85.64055679 -51.40955376 92.21086801 -51.5078125 98.78125 C-56.7878125 98.78125 -62.0678125 98.78125 -67.5078125 98.78125 C-67.5078125 65.78125 -67.5078125 32.78125 -67.5078125 -1.21875 C-62.5578125 -1.21875 -57.6078125 -1.21875 -52.5078125 -1.21875 C-52.5078125 4.06125 -52.5078125 9.34125 -52.5078125 14.78125 C-51.8478125 14.78125 -51.1878125 14.78125 -50.5078125 14.78125 C-50.26804687 14.0490625 -50.02828125 13.316875 -49.78125 12.5625 C-46.58640679 5.58480562 -39.42462736 0.85549607 -32.6328125 -2.28125 C-21.97341826 -6.22059135 -10.1747087 -4.94471825 0 0 Z " fill="#050505" transform="translate(878.5078125,595.21875)"/>
<path d="M0 0 C0.82483887 0.00644531 1.64967773 0.01289062 2.49951172 0.01953125 C13.31400864 0.33952415 22.13841649 3.78417276 29.94140625 11.38671875 C34.32742448 16.51163422 35.64055084 20.84330504 36.75 27.5 C30.81 27.5 24.87 27.5 18.75 27.5 C17.76 25.19 16.77 22.88 15.75 20.5 C8.63825084 14.86986524 1.34166185 14.77595716 -7.35351562 15.25585938 C-11.34845862 15.77014143 -14.4441862 17.68565789 -17.25 20.5 C-18.8287095 23.65741901 -18.74737365 27.06575334 -18.25 30.5 C-15.81369342 36.75796396 -12.77196985 38.39251464 -6.88671875 41.1328125 C-2.24857992 42.87647372 2.40110446 43.92970096 7.23632812 44.96582031 C19.54814838 47.67177544 31.40155219 51.64132846 38.6875 62.5 C42.39797666 69.74951216 41.80636876 78.67244564 39.6875 86.375 C36.36657363 94.62375261 30.34632966 99.18929058 22.69140625 103.2734375 C15.37558016 106.32412726 8.71187642 106.83944937 0.875 106.8125 C-0.05441406 106.82861328 -0.98382812 106.84472656 -1.94140625 106.86132812 C-12.35370905 106.86858915 -21.22625665 104.27628997 -29.25 97.5 C-34.84813374 91.81459023 -39.25 83.6003939 -39.25 75.5 C-33.64 75.5 -28.03 75.5 -22.25 75.5 C-21.528125 77.046875 -20.80625 78.59375 -20.0625 80.1875 C-17.48833399 85.29967801 -15.10806068 89.29592946 -9.64453125 91.59765625 C-2.21223466 93.57333003 7.26586962 94.04391869 14.59765625 91.51953125 C18.08806421 89.39918997 20.56888418 86.97198028 22.75 83.5 C23.73358417 78.53289993 23.36901466 74.59359256 20.875 70.1875 C13.81078484 63.29747096 4.34995662 61.51055918 -4.9152832 59.30224609 C-16.04307782 56.63809472 -26.69444897 53.42310803 -33.1875 43.3125 C-36.89495918 36.94069728 -36.86255167 30.73314438 -36.25 23.5 C-33.76942473 14.68303299 -28.86328448 9.58496769 -21.17578125 4.9296875 C-14.19486552 1.51845231 -7.76771683 -0.06420927 0 0 Z " fill="#060606" transform="translate(540.25,590.5)"/>
<path d="M0 0 C5.61 0 11.22 0 17 0 C17 73.26 17 146.52 17 222 C11.39 222 5.78 222 0 222 C0 148.74 0 75.48 0 0 Z " fill="#D31112" transform="translate(1168,522)"/>
<path d="M0 0 C5.28 0 10.56 0 16 0 C16 12.87 16 25.74 16 39 C24.25 39 32.5 39 41 39 C41 44.28 41 49.56 41 55 C32.75 55 24.5 55 16 55 C16 83.38 16 111.76 16 141 C10.72 141 5.44 141 0 141 C0 112.29 0 83.58 0 54 C-8.25 54 -16.5 54 -25 54 C-25 49.38 -25 44.76 -25 40 C-16.75 40 -8.5 40 0 40 C0 26.8 0 13.6 0 0 Z " fill="#080808" transform="translate(335,554)"/>
<path d="M0 0 C5.28 0 10.56 0 16 0 C16 12.87 16 25.74 16 39 C24.25 39 32.5 39 41 39 C41 43.95 41 48.9 41 54 C32.75 54 24.5 54 16 54 C16 82.38 16 110.76 16 140 C10.72 140 5.44 140 0 140 C0 111.62 0 83.24 0 54 C-8.58 54 -17.16 54 -26 54 C-26 49.05 -26 44.1 -26 39 C-17.42 39 -8.84 39 0 39 C0 26.13 0 13.26 0 0 Z " fill="#040404" transform="translate(617,554)"/>
<path d="M0 0 C5.61 0 11.22 0 17 0 C17 33.66 17 67.32 17 102 C11.72 102 6.44 102 1 102 C-0.95365306 100.04634694 -0.12022124 97.06600248 -0.12442017 94.46598816 C-0.12082489 93.52515884 -0.11722961 92.58432953 -0.11352539 91.61499023 C-0.11367142 90.62973358 -0.11381744 89.64447693 -0.1139679 88.62936401 C-0.11326832 85.35575193 -0.10547385 82.08219596 -0.09765625 78.80859375 C-0.09579223 76.54557832 -0.09436825 74.28256249 -0.09336853 72.01954651 C-0.0895421 66.05021052 -0.07971075 60.08089868 -0.06866455 54.11157227 C-0.05845312 48.02555671 -0.05387149 41.93953727 -0.04882812 35.85351562 C-0.03808859 23.90233311 -0.02101068 11.95116856 0 0 Z " fill="#111111" transform="translate(460,593)"/>
<path d="M0 0 C0 1.65 0 3.3 0 5 C0.66 5.33 1.32 5.66 2 6 C-0.64 6.66 -3.28 7.32 -6 8 C-6 8.66 -6 9.32 -6 10 C-4.02 10.33 -2.04 10.66 0 11 C0.22638576 15.22840284 0.42794972 19.45763658 0.625 23.6875 C0.68945312 24.88568359 0.75390625 26.08386719 0.8203125 27.31835938 C0.871875 28.47529297 0.9234375 29.63222656 0.9765625 30.82421875 C1.02893066 31.88729248 1.08129883 32.95036621 1.13525391 34.0456543 C0.99408472 37.12920727 0.31336415 39.22759138 -1 42 C-4.375 41.75 -4.375 41.75 -8 41 C-9.3125 39.0625 -9.3125 39.0625 -10 37 C-10.66 36.34 -11.32 35.68 -12 35 C-12.474375 35.804375 -12.94875 36.60875 -13.4375 37.4375 C-15 40 -15 40 -16 41 C-18.33297433 41.04092937 -20.66705225 41.04241723 -23 41 C-23.02505615 40.43490723 -23.0501123 39.86981445 -23.07592773 39.28759766 C-23.19179956 36.73316258 -23.31456537 34.1791045 -23.4375 31.625 C-23.47681641 30.73554687 -23.51613281 29.84609375 -23.55664062 28.9296875 C-23.59853516 28.07890625 -23.64042969 27.228125 -23.68359375 26.3515625 C-23.72025146 25.56604004 -23.75690918 24.78051758 -23.79467773 23.97119141 C-23.890891 21.92476504 -23.890891 21.92476504 -25 20 C-26.65 21.65 -28.3 23.3 -30 25 C-31 23 -31 23 -30.0625 19.875 C-29.711875 18.92625 -29.36125 17.9775 -29 17 C-31.97017694 17.62810173 -31.97017694 17.62810173 -35 19 C-37.36854499 23.22497214 -37.42229606 27.58696442 -37.625 32.3125 C-37.66367187 33.05306641 -37.70234375 33.79363281 -37.7421875 34.55664062 C-37.83581705 36.37071309 -37.91896851 38.18532116 -38 40 C-39.32 40 -40.64 40 -42 40 C-42 30.43 -42 20.86 -42 11 C-40.68 11 -39.36 11 -38 11 C-37.67 12.32 -37.34 13.64 -37 15 C-36.484375 14.360625 -35.96875 13.72125 -35.4375 13.0625 C-31.74287983 9.93628294 -28.28913748 9.83961457 -23.546875 10.171875 C-21.35628432 10.4060891 -19.17936498 10.6787784 -17 11 C-16.34 9.68 -15.68 8.36 -15 7 C-14.01 7.33 -13.02 7.66 -12 8 C-11.67 7.01 -11.34 6.02 -11 5 C-10.34 5 -9.68 5 -9 5 C-8.67 3.35 -8.34 1.7 -8 0 C-4.71023192 -1.09658936 -3.28696233 -0.79953138 0 0 Z " fill="#FCFBF9" transform="translate(949,704)"/>
<path d="M0 0 C1.65 0 3.3 0 5 0 C4.34 0.66 3.68 1.32 3 2 C2.80440104 4.77872407 2.7351925 7.45765433 2.75276184 10.23742676 C2.75034743 11.09935402 2.74793301 11.96128129 2.74544543 12.84932756 C2.73978331 15.75444513 2.74849045 18.65934524 2.75708008 21.56445312 C2.75600782 23.640295 2.75406998 25.71613659 2.75132751 27.79197693 C2.74646705 33.4426684 2.75414981 39.09328128 2.76428056 44.74396324 C2.77304157 50.64608043 2.77130399 56.54819502 2.7709198 62.45031738 C2.77185733 72.36353883 2.78055328 82.27672973 2.79418945 92.18994141 C2.80991591 103.66543933 2.81518761 115.14090377 2.8144539 126.61641169 C2.81384435 137.63685224 2.81894315 148.65728185 2.82724571 159.67771912 C2.83078423 164.37625718 2.83260977 169.07479136 2.83313942 173.77333069 C2.83414118 179.30212195 2.84022414 184.8308849 2.85030556 190.35966682 C2.85323581 192.393874 2.85445487 194.42808442 2.85387802 196.46229362 C2.85339018 199.22908397 2.85901481 201.99579404 2.86628723 204.76257324 C2.86473863 205.57637341 2.86319003 206.39017358 2.8615945 207.22863436 C2.78737585 211.24469725 2.78737585 211.24469725 4 215 C3.505 216.98 3.505 216.98 3 219 C6.63 219 10.26 219 14 219 C14 146.73 14 74.46 14 0 C14.33 0 14.66 0 15 0 C15 72.93 15 145.86 15 221 C10.05 221 5.1 221 0 221 C0 148.07 0 75.14 0 0 Z " fill="#BB0909" transform="translate(1169,523)"/>
<path d="M0 0 C2.29501486 1.12805815 3.98392717 2.38714173 6 4 C6.33 3.01 6.66 2.02 7 1 C8.65 1 10.3 1 12 1 C12 10.57 12 20.14 12 30 C10.35 30 8.7 30 7 30 C6.67 29.01 6.34 28.02 6 27 C5.175 27.66 4.35 28.32 3.5 29 C-0.45881475 31.62985094 -3.31446777 31.52061469 -8 31 C-12.28757504 29.20520114 -15.9799925 26.24698299 -18 22 C-18.88999843 16.40682023 -18.77143469 11.66155164 -16.375 6.5 C-11.48542773 1.35308182 -7.14175454 -1.47369538 0 0 Z " fill="#BE292E" transform="translate(1080,714)"/>
<path d="M0 0 C2.53027637 1.13936421 4.6631194 2.47387389 7 4 C7.33 3.01 7.66 2.02 8 1 C9.65 1 11.3 1 13 1 C13 10.57 13 20.14 13 30 C11.35 30 9.7 30 8 30 C7.67 29.01 7.34 28.02 7 27 C6.175 27.66 5.35 28.32 4.5 29 C0.73862045 31.48392989 -2.60058446 31.87812685 -7 31 C-12.10209922 28.30455136 -15.17381037 25.4785689 -17 20 C-17.62694513 14.87696264 -17.79369597 10.44551226 -14.8125 6.0625 C-10.52444347 0.96968216 -6.74639765 -0.81422041 0 0 Z " fill="#C11B1D" transform="translate(719,714)"/>
<path d="M0 0 C3.50891921 1.7544596 6.76197941 3.78949325 10 6 C9.34 8.64 8.68 11.28 8 14 C7.34 13.67 6.68 13.34 6 13 C6 13.66 6 14.32 6 15 C7.65 15.66 9.3 16.32 11 17 C11 18.32 11 19.64 11 21 C10.34 21.33 9.68 21.66 9 22 C8.29618843 23.98723268 7.6288189 25.98777953 7 28 C4.95637587 30.04362413 1.05429357 29.5475774 -1.75 29.75 C-2.82507813 29.85248047 -2.82507813 29.85248047 -3.921875 29.95703125 C-8.59193427 30.29183329 -11.31203437 29.91963945 -15 27 C-18.72601515 23.30221223 -21.14122769 20.0504273 -21.3125 14.75 C-21.25266273 10.09017232 -20.08723934 7.58787274 -17 4 C-11.45568905 -1.00340257 -7.1170314 -1.82265438 0 0 Z " fill="#FBF7F5" transform="translate(626,715)"/>
<path d="M0 0 C4.68614225 5.19275222 5 6.56872286 5 14 C-3.25 14 -11.5 14 -20 14 C-17.66151858 19.91731018 -17.66151858 19.91731018 -14 22 C-8.51038146 22.43568401 -6.30553658 22.44442926 -2 19 C1.25 18.8125 1.25 18.8125 4 19 C3.34 20.32 2.68 21.64 2 23 C1.34 23 0.68 23 0 23 C0 23.66 0 24.32 0 25 C-5.71712243 28.04102257 -9.68018797 28.32275136 -16 27 C-20.04822294 25.65059235 -21.45210569 23.35249252 -24 20 C-25.72666189 14.82001432 -25.90972877 9.20250122 -23.8125 4.125 C-17.2737136 -3.54116337 -8.86888423 -5.71550317 0 0 Z " fill="#BA0C10" transform="translate(1049,717)"/>
<path d="M0 0 C3.16159499 2.14962003 5.91859937 4.13736497 6.9296875 7.95703125 C6.9296875 10.26703125 6.9296875 12.57703125 6.9296875 14.95703125 C-1.3203125 14.95703125 -9.5703125 14.95703125 -18.0703125 14.95703125 C-16.19110917 20.19636131 -16.19110917 20.19636131 -12.0703125 22.95703125 C-6.87490328 23.52380317 -4.3916853 22.68631934 -0.0703125 19.95703125 C2.7421875 19.76953125 2.7421875 19.76953125 4.9296875 19.95703125 C4.32616362 22.67288872 3.56098249 24.44883879 1.3671875 26.21484375 C-3.30010711 28.90606604 -7.34232397 29.55363065 -12.6640625 28.7734375 C-16.84501313 27.35490068 -19.54144559 24.49899163 -22.0703125 20.95703125 C-23.51964233 16.60904177 -23.58700315 12.5010778 -23.0703125 7.95703125 C-21.05826977 4.00480446 -18.89746879 1.2294053 -15.0703125 -1.04296875 C-10.0307787 -2.62379093 -4.75136459 -2.39361197 0 0 Z " fill="#BA181D" transform="translate(835.0703125,716.04296875)"/>
<path d="M0 0 C3.52181534 2.29683609 5.59754202 4.32484491 7.875 7.875 C7.875 10.515 7.875 13.155 7.875 15.875 C-0.375 15.875 -8.625 15.875 -17.125 15.875 C-14.78651858 21.79231018 -14.78651858 21.79231018 -11.125 23.875 C-5.63538146 24.31068401 -3.43053658 24.31942926 0.875 20.875 C4.125 20.6875 4.125 20.6875 6.875 20.875 C4.89951032 25.31985177 2.43940496 27.2755945 -1.8828125 29.19921875 C-5.88477022 30.40538371 -9.19542098 30.30083683 -13.125 28.875 C-17.20061869 26.16939503 -20.55506152 23.58481543 -22.125 18.875 C-22.95143938 12.8892176 -22.18680477 8.50394646 -18.67578125 3.5390625 C-13.66597935 -1.8366947 -6.60211915 -2.37676289 0 0 Z " fill="#BD181B" transform="translate(686.125,715.125)"/>
<path d="M0 0 C2.75 2 2.75 2 5 4 C5.66 4 6.32 4 7 4 C7.556875 3.34 8.11375 2.68 8.6875 2 C11 0 11 0 14.4375 -0.4375 C18.21541773 0.02645481 20.08308685 0.5831291 23 3 C24.74711911 6.54544557 25.2412762 9.37088517 25.1953125 13.30078125 C25.18886719 14.27724609 25.18242188 15.25371094 25.17578125 16.25976562 C25.15902344 17.26716797 25.14226562 18.27457031 25.125 19.3125 C25.11597656 20.33923828 25.10695313 21.36597656 25.09765625 22.42382812 C25.07416201 24.94945899 25.04131131 27.4746081 25 30 C23.68 30 22.36 30 21 30 C20.970271 29.06933716 20.970271 29.06933716 20.93994141 28.11987305 C20.84468155 25.30865463 20.73500698 22.49817834 20.625 19.6875 C20.5940625 18.71103516 20.563125 17.73457031 20.53125 16.72851562 C20.47324219 15.32182617 20.47324219 15.32182617 20.4140625 13.88671875 C20.3826416 13.02264404 20.3512207 12.15856934 20.31884766 11.26831055 C20.12811963 8.72257555 20.12811963 8.72257555 18 6 C14.54230809 5.41657647 14.54230809 5.41657647 11 6 C8.26308468 8.79975568 7.61193334 10.90767968 7.48828125 14.765625 C7.45283203 15.65507813 7.41738281 16.54453125 7.38085938 17.4609375 C7.35830078 18.38132812 7.33574219 19.30171875 7.3125 20.25 C7.27833984 21.18585937 7.24417969 22.12171875 7.20898438 23.0859375 C7.12667838 25.39050533 7.0574737 27.69470119 7 30 C5.68 30 4.36 30 3 30 C2.98018066 29.37955811 2.96036133 28.75911621 2.93994141 28.11987305 C2.84468155 25.30865463 2.73500698 22.49817834 2.625 19.6875 C2.5940625 18.71103516 2.563125 17.73457031 2.53125 16.72851562 C2.49257812 15.79072266 2.45390625 14.85292969 2.4140625 13.88671875 C2.3826416 13.02264404 2.3512207 12.15856934 2.31884766 11.26831055 C2.12811963 8.72257555 2.12811963 8.72257555 0 6 C-3.71640139 5.72971626 -6.457201 5.819067 -10 7 C-11.04724578 9.78908164 -11.17649105 12.58866783 -11.31640625 15.546875 C-11.35830078 16.39121094 -11.40019531 17.23554687 -11.44335938 18.10546875 C-11.48267578 18.97816406 -11.52199219 19.85085938 -11.5625 20.75 C-11.62727539 22.08224609 -11.62727539 22.08224609 -11.69335938 23.44140625 C-11.79913615 25.62745963 -11.90122546 27.81362089 -12 30 C-13.65 30 -15.3 30 -17 30 C-17 20.43 -17 10.86 -17 1 C-15.35 1 -13.7 1 -12 1 C-11.67 1.66 -11.34 2.32 -11 3 C-10.29875 2.505 -9.5975 2.01 -8.875 1.5 C-5.50604479 -0.25771576 -3.74917903 -0.54675527 0 0 Z " fill="#C10E13" transform="translate(1120,714)"/>
<path d="M0 0 C2.82275936 1.25455972 4.46288541 2.28384722 6.3125 4.75 C7.54581342 8.78629847 7.95197422 12.13948765 5.97265625 16.0078125 C3.89795347 18.84687947 2.20140829 20.65011618 -1.2265625 21.6484375 C-5.72327 21.96425977 -7.5053209 21.4225384 -11 18.4375 C-13.1844093 14.68304651 -14 12.33675991 -14 8 C-11.08614595 1.25212745 -7.23934947 -0.76203679 0 0 Z " fill="#FBF8F7" transform="translate(1080,719)"/>
<path d="M0 0 C3.5386994 1.65139305 4.81070153 2.71605229 7 6 C7.23046875 7.9375 7.23046875 7.9375 7.1875 10 C7.18105469 10.680625 7.17460938 11.36125 7.16796875 12.0625 C6.89390397 15.22380536 6.14010442 16.8467608 4 19.1875 C-0.06510548 21.64350123 -3.36557898 22.07270505 -8 21 C-11.48860872 18.29454834 -12.62388037 16.8140539 -13.5078125 12.55078125 C-13.74728076 9.06807976 -13.79475178 6.25649138 -11.890625 3.24609375 C-8.19651482 -0.23947795 -4.86205229 -0.70720761 0 0 Z " fill="#FBF7F5" transform="translate(720,719)"/>
<path d="M0 0 C2.91871711 2.63396422 3.70080729 4.52105209 4.5625 8.3125 C2.3125 8.5625 2.3125 8.5625 -0.4375 8.3125 C-2.625 6.375 -2.625 6.375 -4.4375 4.3125 C-7.29074437 2.88587781 -9.27204549 3.00216132 -12.4375 3.3125 C-15.13740662 5.11243774 -16.9793865 6.396273 -18.4375 9.3125 C-19.03170843 15.18814294 -19.03170843 15.18814294 -16.4375 20.3125 C-12.28187903 23.08291398 -10.37082128 23.01726018 -5.4375 22.3125 C-4.06439293 21.02016393 -2.72715176 19.68812854 -1.4375 18.3125 C1.8125 18.0625 1.8125 18.0625 4.5625 18.3125 C2.80648243 22.85748666 0.94819119 25.38730403 -3.47265625 27.62109375 C-7.85096724 29.16177177 -11.80526612 28.99576069 -16.125 27.1875 C-19.84401424 24.17208305 -24.0709023 20.31739916 -24.67578125 15.359375 C-24.85595566 9.78345117 -24.20908562 6.6956941 -20.4375 2.3125 C-13.93511282 -3.55550794 -7.76172457 -3.81030115 0 0 Z " fill="#BF1B1F" transform="translate(629.4375,716.6875)"/>
<path d="M0 0 C1.65 0 3.3 0 5 0 C5.02505615 0.65597168 5.0501123 1.31194336 5.07592773 1.98779297 C5.1917326 4.95040183 5.31452886 7.91268031 5.4375 10.875 C5.47681641 11.90753906 5.51613281 12.94007813 5.55664062 14.00390625 C5.61948242 15.48310547 5.61948242 15.48310547 5.68359375 16.9921875 C5.72025146 17.90339355 5.75690918 18.81459961 5.79467773 19.75341797 C5.86577065 22.03483481 5.86577065 22.03483481 7 24 C10.3 24 13.6 24 17 24 C19.23831466 18.47882385 20.24598408 13.75365952 20.5625 7.8125 C20.60568359 7.06291016 20.64886719 6.31332031 20.69335938 5.54101562 C20.79922685 3.69421625 20.9000976 1.84713166 21 0 C22.32 0 23.64 0 25 0 C25 9.57 25 19.14 25 29 C23.35 29 21.7 29 20 29 C19.67 28.34 19.34 27.68 19 27 C18.319375 27.495 17.63875 27.99 16.9375 28.5 C13.27568094 30.36986505 11.06785405 30.50848176 7 30 C2.95097715 27.57058629 1.44635684 25.41610738 0 21 C-0.22705078 18.50463867 -0.22705078 18.50463867 -0.1953125 15.91796875 C-0.18886719 14.98662109 -0.18242188 14.05527344 -0.17578125 13.09570312 C-0.15902344 12.13599609 -0.14226563 11.17628906 -0.125 10.1875 C-0.11597656 9.20845703 -0.10695313 8.22941406 -0.09765625 7.22070312 C-0.07417182 4.81354939 -0.0413284 2.40690257 0 0 Z " fill="#BF0F0F" transform="translate(871,715)"/>
<path d="M0 0 C2.64233769 2.19257809 4.46669809 3.93339618 6 7 C6.08426094 8.6674606 6.10725143 10.33825187 6.09765625 12.0078125 C6.09443359 12.99394531 6.09121094 13.98007812 6.08789062 14.99609375 C6.07951172 16.02863281 6.07113281 17.06117188 6.0625 18.125 C6.05798828 19.16527344 6.05347656 20.20554687 6.04882812 21.27734375 C6.03701952 23.85161962 6.02055075 26.42578146 6 29 C4.35 29 2.7 29 1 29 C0.98018066 28.34402832 0.96036133 27.68805664 0.93994141 27.01220703 C0.84487493 24.04938931 0.73512248 21.08729468 0.625 18.125 C0.5940625 17.09246094 0.563125 16.05992187 0.53125 14.99609375 C0.49257813 14.00996094 0.45390625 13.02382813 0.4140625 12.0078125 C0.36693115 10.64100342 0.36693115 10.64100342 0.31884766 9.24658203 C0.20117489 6.80068814 0.20117489 6.80068814 -2 5 C-5.41538144 4.41630557 -5.41538144 4.41630557 -9 5 C-13.94082556 9.81080384 -14.21230654 14.61419651 -14.5625 21.1875 C-14.60568359 21.93708984 -14.64886719 22.68667969 -14.69335938 23.45898438 C-14.79922685 25.30578375 -14.9000976 27.15286834 -15 29 C-16.32 29 -17.64 29 -19 29 C-19 19.43 -19 9.86 -19 0 C-17.68 0 -16.36 0 -15 0 C-14.67 1.32 -14.34 2.64 -14 4 C-13.38125 3.360625 -12.7625 2.72125 -12.125 2.0625 C-8.33229999 -1.61865001 -4.93232228 -1.4078851 0 0 Z " fill="#C11216" transform="translate(926,715)"/>
<path d="M0 0 C2.87898475 1.2517325 4.44740029 2.29669128 6.375 4.75 C7.33008949 8.18832218 6.90421661 10.56397688 6 14 C3.5 16.875 3.5 16.875 1 19 C0.67 19.33 0.34 19.66 0 20 C-4.21736315 20.04277245 -7.89643766 19.68972646 -11.5 17.4375 C-13.5919139 14.03813991 -14.21375015 10.98208605 -14 7 C-11.14709113 0.4383096 -6.8218237 -0.86605184 0 0 Z " fill="#0A0A0A" transform="translate(472,556)"/>
<path d="M0 0 C0 1.65 0 3.3 0 5 C0.66 5.33 1.32 5.66 2 6 C-0.64 6.66 -3.28 7.32 -6 8 C-6 8.66 -6 9.32 -6 10 C-3.03 10.495 -3.03 10.495 0 11 C0.22638576 15.22840284 0.42794972 19.45763658 0.625 23.6875 C0.68945312 24.88568359 0.75390625 26.08386719 0.8203125 27.31835938 C0.871875 28.47529297 0.9234375 29.63222656 0.9765625 30.82421875 C1.02893066 31.88729248 1.08129883 32.95036621 1.13525391 34.0456543 C0.99408472 37.12920727 0.31336415 39.22759138 -1 42 C-2.66611905 42.042721 -4.33382885 42.04063832 -6 42 C-8.15456969 39.84543031 -7.26026626 34.9288373 -7.31640625 31.93359375 C-7.33718735 31.02497086 -7.35796844 30.11634796 -7.37937927 29.18019104 C-7.44497672 26.26604054 -7.5038068 23.35179696 -7.5625 20.4375 C-7.60567554 18.46678709 -7.64928951 16.49608374 -7.69335938 14.52539062 C-7.80066843 9.68369012 -7.90190675 4.84189563 -8 0 C-4.71023192 -1.09658936 -3.28696233 -0.79953138 0 0 Z " fill="#FDC1C0" transform="translate(949,704)"/>
<path d="M0 0 C1.65 0 3.3 0 5 0 C5 3.96 5 7.92 5 12 C7.31 12 9.62 12 12 12 C12 13.32 12 14.64 12 16 C9.69 16 7.38 16 5 16 C5 24.25 5 32.5 5 41 C3.35 41 1.7 41 0 41 C0 32.75 0 24.5 0 16 C-2.31 16 -4.62 16 -7 16 C-7 14.68 -7 13.36 -7 12 C-4.69 12 -2.38 12 0 12 C0 8.04 0 4.08 0 0 Z " fill="#C11A1C" transform="translate(747,703)"/>
<path d="M0 0 C1 3 1 3 1 6 C7.93 6.33 14.86 6.66 22 7 C22 7.66 22 8.32 22 9 C22.99 9 23.98 9 25 9 C25 7.35 25 5.7 25 4 C25.33 4 25.66 4 26 4 C26 5.98 26 7.96 26 10 C17.75 10 9.5 10 1 10 C3.33848142 15.91731018 3.33848142 15.91731018 7 18 C12.48961854 18.43568401 14.69446342 18.44442926 19 15 C22.25 14.8125 22.25 14.8125 25 15 C23.02451032 19.44485177 20.56440496 21.4005945 16.2421875 23.32421875 C12.24022978 24.53038371 8.92957902 24.42583683 5 23 C0.92438131 20.29439503 -2.43006152 17.70981543 -4 13 C-4.50865551 8.47213214 -4.87751779 5.12431967 -2 1.4375 C-1.34 0.963125 -0.68 0.48875 0 0 Z " fill="#C21116" transform="translate(668,721)"/>
<path d="M0 0 C1.25 1.875 1.25 1.875 2 4 C2.99 5.485 2.99 5.485 4 7 C4 7.99 4 8.98 4 10 C4.66 10 5.32 10 6 10 C6.33 13.3 6.66 16.6 7 20 C4.03 20.33 1.06 20.66 -2 21 C-0.35 21.33 1.3 21.66 3 22 C2.67 22.99 2.34 23.98 2 25 C2 24.34 2 23.68 2 23 C-2.09326207 24.27095151 -2.09326207 24.27095151 -5.9375 26.125 C-9.161177 27.49262055 -11.53695271 27.41795398 -15 27 C-17.57513606 25.58564737 -18.94064619 24.21003823 -21 22 C-21 20.68 -21 19.36 -21 18 C-12.75 18 -4.5 18 4 18 C2.46726947 9.2474139 2.46726947 9.2474139 -3 4 C-7.63749702 1.08500188 -12.83347556 1.95829426 -18 3 C-20.23522553 3.9731026 -20.23522553 3.9731026 -22 5 C-22 4.01 -22 3.02 -22 2 C-15.34576765 -0.62667066 -6.95966284 -2.26189042 0 0 Z " fill="#FAF3F3" transform="translate(838,713)"/>
<path d="M0 0 C1.65 0 3.3 0 5 0 C6.17495143 2.93425371 7.33850852 5.87289513 8.5 8.8125 C8.83386719 9.64587891 9.16773438 10.47925781 9.51171875 11.33789062 C9.82753906 12.14033203 10.14335938 12.94277344 10.46875 13.76953125 C10.76201172 14.50792236 11.05527344 15.24631348 11.35742188 16.00708008 C12 18 12 18 12 21 C12.66 21 13.32 21 14 21 C14.10183594 20.17242188 14.20367188 19.34484375 14.30859375 18.4921875 C15.10944016 14.44723447 16.47920255 10.91609737 18.0625 7.125 C18.34416016 6.43664062 18.62582031 5.74828125 18.91601562 5.0390625 C19.60515266 3.35710091 20.30180798 1.67822303 21 0 C22.65 0 24.3 0 26 0 C23.76188601 7.00406547 21.12994735 13.77276643 18.3125 20.5625 C17.89677734 21.57119141 17.48105469 22.57988281 17.05273438 23.61914062 C16.03784021 26.0805506 15.02021747 28.54079283 14 31 C13.34 31 12.68 31 12 31 C10.28651265 26.90844133 8.57763792 22.81499689 6.87304688 18.71972656 C6.2922869 17.32629239 5.71026074 15.93338525 5.12695312 14.54101562 C4.28964617 12.54173168 3.45688311 10.54060824 2.625 8.5390625 C2.12226562 7.33459473 1.61953125 6.13012695 1.1015625 4.88916016 C0 2 0 2 0 0 Z " fill="#BF181B" transform="translate(780,715)"/>
<path d="M0 0 C2.46001907 1.9987655 4.23077272 3.54541915 5.0625 6.6875 C5.08507959 9.02072408 5.08686062 11.35429384 5.0625 13.6875 C1.09342526 13.85479064 -2.87585721 14.01538226 -6.84545898 14.16967773 C-8.19677079 14.22315802 -9.54801052 14.27849194 -10.89916992 14.33569336 C-12.83752989 14.41743571 -14.77618704 14.49203323 -16.71484375 14.56640625 C-17.88265381 14.6135376 -19.05046387 14.66066895 -20.25366211 14.70922852 C-22.9375 14.6875 -22.9375 14.6875 -23.9375 13.6875 C-23.97830783 11.68791636 -23.98004356 9.68704746 -23.9375 7.6875 C-23.2775 7.6875 -22.6175 7.6875 -21.9375 7.6875 C-21.6075 8.3475 -21.2775 9.0075 -20.9375 9.6875 C-14.0075 10.0175 -7.0775 10.3475 0.0625 10.6875 C-2.27598142 4.77018982 -2.27598142 4.77018982 -5.9375 2.6875 C-8.15479717 2.4090372 -8.15479717 2.4090372 -10.5 2.5 C-11.28503906 2.50644531 -12.07007813 2.51289062 -12.87890625 2.51953125 C-15.00104672 2.56385911 -15.00104672 2.56385911 -16.9375 3.6875 C-16.9375 3.0275 -16.9375 2.3675 -16.9375 1.6875 C-18.2575 1.3575 -19.5775 1.0275 -20.9375 0.6875 C-14.6341041 -4.49028949 -6.79700774 -4.62139647 0 0 Z " fill="#BE1518" transform="translate(836.9375,717.3125)"/>
<path d="M0 0 C1.32 0 2.64 0 4 0 C4 3.63 4 7.26 4 11 C6.64 11 9.28 11 12 11 C12 12.32 12 13.64 12 15 C9.36 15 6.72 15 4 15 C4 23.25 4 31.5 4 40 C2.68 40 1.36 40 0 40 C0 31.75 0 23.5 0 15 C-2.31 15 -4.62 15 -7 15 C-7 13.68 -7 12.36 -7 11 C-4.69 11 -2.38 11 0 11 C0 7.37 0 3.74 0 0 Z " fill="#D10001" transform="translate(1006,704)"/>
<path d="M0 0 C1.32 0 2.64 0 4 0 C4 3.63 4 7.26 4 11 C6.64 11 9.28 11 12 11 C12 12.32 12 13.64 12 15 C9.36 15 6.72 15 4 15 C4 23.25 4 31.5 4 40 C2.68 40 1.36 40 0 40 C0 31.75 0 23.5 0 15 C-2.31 15 -4.62 15 -7 15 C-7 13.68 -7 12.36 -7 11 C-4.69 11 -2.38 11 0 11 C0 7.37 0 3.74 0 0 Z " fill="#BA0D0F" transform="translate(963,704)"/>
<path d="M0 0 C2.3125 0.3125 2.3125 0.3125 3.3125 1.3125 C3.35313832 2.97867115 3.355221 4.64638095 3.3125 6.3125 C2.219375 6.374375 1.12625 6.43625 0 6.5 C-3.69998315 6.92767305 -3.69998315 6.92767305 -5.375 9.28125 C-7.16253181 13.40959727 -7.25190797 17.16906861 -7.375 21.625 C-7.40916016 22.46095703 -7.44332031 23.29691406 -7.47851562 24.15820312 C-7.56055461 26.20917772 -7.6257151 28.26081538 -7.6875 30.3125 C-9.3375 30.3125 -10.9875 30.3125 -12.6875 30.3125 C-12.6875 20.7425 -12.6875 11.1725 -12.6875 1.3125 C-11.0375 1.3125 -9.3875 1.3125 -7.6875 1.3125 C-7.3575 2.3025 -7.0275 3.2925 -6.6875 4.3125 C-6.130625 3.6525 -5.57375 2.9925 -5 2.3125 C-2.6875 0.3125 -2.6875 0.3125 0 0 Z " fill="#C10A0C" transform="translate(655.6875,713.6875)"/>
<path d="M0 0 C-0.33 1.65 -0.66 3.3 -1 5 C-3.97 5.66 -6.94 6.32 -10 7 C-10.76914334 10.07657338 -11.16965109 12.44405157 -11.31640625 15.546875 C-11.35830078 16.39121094 -11.40019531 17.23554687 -11.44335938 18.10546875 C-11.48267578 18.97816406 -11.52199219 19.85085938 -11.5625 20.75 C-11.62727539 22.08224609 -11.62727539 22.08224609 -11.69335938 23.44140625 C-11.79913615 25.62745963 -11.90122546 27.81362089 -12 30 C-13.65 30 -15.3 30 -17 30 C-17 20.43 -17 10.86 -17 1 C-15.35 1 -13.7 1 -12 1 C-11.67 1.66 -11.34 2.32 -11 3 C-10.29875 2.505 -9.5975 2.01 -8.875 1.5 C-5.62880281 -0.1936681 -3.60659844 -0.25162315 0 0 Z " fill="#BF1B1F" transform="translate(1120,714)"/>
<path d="M0 0 C0.66 0 1.32 0 2 0 C2 1.98 2 3.96 2 6 C2.66 6 3.32 6 4 6 C3.67 7.65 3.34 9.3 3 11 C2.01 11 1.02 11 0 11 C0 11.99 0 12.98 0 14 C-1.093125 14.28875 -2.18625 14.5775 -3.3125 14.875 C-7.04013845 15.81893204 -7.04013845 15.81893204 -10 18 C-14.62174501 18.44726565 -16.89932651 18.63230179 -20.9375 16.3125 C-23 14 -23 14 -24 9 C-15.75 9 -7.5 9 1 9 C0.67 6.03 0.34 3.06 0 0 Z " fill="#FCE8E4" transform="translate(1053,722)"/>
<path d="M0 0 C0.66 0 1.32 0 2 0 C1.67 2.64 1.34 5.28 1 8 C0.34 8 -0.32 8 -1 8 C-1 8.99 -1 9.98 -1 11 C-2.093125 11.28875 -3.18625 11.5775 -4.3125 11.875 C-8.04013845 12.81893204 -8.04013845 12.81893204 -11 15 C-15.62174501 15.44726565 -17.89932651 15.63230179 -21.9375 13.3125 C-24 11 -24 11 -25 6 C-16.75 6 -8.5 6 0 6 C0 4.02 0 2.04 0 0 Z " fill="#FCF1EE" transform="translate(694,725)"/>
<path d="M0 0 C1.98 0 3.96 0 6 0 C6.33 1.65 6.66 3.3 7 5 C6.195625 5.28875 5.39125 5.5775 4.5625 5.875 C1.8673532 6.73262568 1.8673532 6.73262568 1 9 C1 9.66 1 10.32 1 11 C1 12.66666667 1 14.33333333 1 16 C0.01 16 -0.98 16 -2 16 C-2 15.34 -2 14.68 -2 14 C-2.66 14 -3.32 14 -4 14 C-4 14.66 -4 15.32 -4 16 C-6 17 -6 17 -12 17 C-12 24.92 -12 32.84 -12 41 C-14.31 41 -16.62 41 -19 41 C-19 32.75 -19 24.5 -19 16 C-20.98 16 -22.96 16 -25 16 C-25 15.67 -25 15.34 -25 15 C-22.69 15 -20.38 15 -18 15 C-18 23.25 -18 31.5 -18 40 C-16.35 40 -14.7 40 -13 40 C-13 31.75 -13 23.5 -13 15 C-10.69 15 -8.38 15 -6 15 C-6 13.68 -6 12.36 -6 11 C-8.31 11 -10.62 11 -13 11 C-13 10.67 -13 10.34 -13 10 C-12.37351562 9.96261719 -11.74703125 9.92523437 -11.1015625 9.88671875 C-10.28429687 9.82097656 -9.46703125 9.75523437 -8.625 9.6875 C-7.81289063 9.62949219 -7.00078125 9.57148437 -6.1640625 9.51171875 C-3.62078662 9.17009472 -3.62078662 9.17009472 -2 6 C-1.29835358 4.01200182 -0.62627128 2.01301483 0 0 Z " fill="#FEDFDB" transform="translate(765,704)"/>
<path d="M0 0 C2.02862562 0.58387109 2.02862562 0.58387109 4.1875 0 C9.03933689 -0.97036738 15.38404312 -1.59169293 20 0.4375 C23.86470051 4.28868757 24.26753998 7.30624258 24.390625 12.7109375 C24.36417244 15.07844129 24.31666797 17.44578724 24.25 19.8125 C24.23195313 21.02550781 24.21390625 22.23851562 24.1953125 23.48828125 C24.14832216 26.4721679 24.08263372 29.45442279 24 32.4375 C21.69 32.4375 19.38 32.4375 17 32.4375 C16.31728707 24.08645793 15.84607961 15.81761029 16 7.4375 C18.10407096 9.13386171 18.93240678 9.98731464 19.34057617 12.70581055 C19.32486572 13.56988525 19.30915527 14.43395996 19.29296875 15.32421875 C19.28330078 16.26201172 19.27363281 17.19980469 19.26367188 18.16601562 C19.23853516 19.14248047 19.21339844 20.11894531 19.1875 21.125 C19.16719727 22.60709961 19.16719727 22.60709961 19.14648438 24.11914062 C19.11112203 26.55914231 19.06177033 28.99804719 19 31.4375 C20.32 31.4375 21.64 31.4375 23 31.4375 C22.91864935 27.89492654 22.80584824 24.3540153 22.6875 20.8125 C22.65366211 19.31396484 22.65366211 19.31396484 22.61914062 17.78515625 C22.42179974 12.36725196 22.21095863 8.02894203 19 3.4375 C14.52745503 1.94665168 10.47254497 1.94665168 6 3.4375 C5.67 4.4275 5.34 5.4175 5 6.4375 C2.50638429 5.23368552 0.31856917 3.98321278 -2 2.4375 C-5.4103976 2.22435015 -7.74531799 2.352606 -11 3.4375 C-11 2.7775 -11 2.1175 -11 1.4375 C-7.26112153 -0.77813168 -4.20538631 -1.1827649 0 0 Z " fill="#FCD6D2" transform="translate(1122,712.5625)"/>
<path d="M0 0 C0.33 0 0.66 0 1 0 C1 9.57 1 19.14 1 29 C-0.65 29 -2.3 29 -4 29 C-4.33 28.01 -4.66 27.02 -5 26 C-5.825 26.66 -6.65 27.32 -7.5 28 C-11.26137955 30.48392989 -14.60058446 30.87812685 -19 30 C-24.10209922 27.30455136 -27.17381037 24.4785689 -29 19 C-29.06802967 17.27204648 -29.08495645 15.54164635 -29.0625 13.8125 C-29.05347656 12.91144531 -29.04445313 12.01039063 -29.03515625 11.08203125 C-29.02355469 10.39496094 -29.01195312 9.70789063 -29 9 C-28.67 9 -28.34 9 -28 9 C-27.87882813 9.85464844 -27.75765625 10.70929687 -27.6328125 11.58984375 C-27.46523438 12.69457031 -27.29765625 13.79929687 -27.125 14.9375 C-26.96257813 16.03964844 -26.80015625 17.14179687 -26.6328125 18.27734375 C-26.42398438 19.17582031 -26.21515625 20.07429687 -26 21 C-25.34 21.33 -24.68 21.66 -24 22 C-23.67 21.01 -23.34 20.02 -23 19 C-22.566875 19.825 -22.13375 20.65 -21.6875 21.5 C-18.4749077 24.48845795 -17.5000531 24.33984912 -13.25 24.3125 C-11.49873926 24.23227209 -9.74784467 24.13560864 -8 24 C-7.67 23.01 -7.34 22.02 -7 21 C-5 22.25 -5 22.25 -3 24 C-3 25.32 -3 26.64 -3 28 C-2.01 28 -1.02 28 0 28 C0 18.76 0 9.52 0 0 Z " fill="#C01110" transform="translate(731,715)"/>
<path d="M0 0 C1.65 0 3.3 0 5 0 C5 9.57 5 19.14 5 29 C3.35 29 1.7 29 0 29 C0 19.43 0 9.86 0 0 Z " fill="#BC1D22" transform="translate(767,715)"/>
<path d="M0 0 C1.32 0 2.64 0 4 0 C4 9.57 4 19.14 4 29 C2.68 29 1.36 29 0 29 C0 27.68 0 26.36 0 25 C-1.65 25 -3.3 25 -5 25 C-4.72285156 24.5359375 -4.44570313 24.071875 -4.16015625 23.59375 C-0.18626091 16.01365071 -0.20549383 8.37387355 0 0 Z " fill="#BA1417" transform="translate(892,715)"/>
<path d="M0 0 C0.99 0 1.98 0 3 0 C3.625 1.75 3.625 1.75 4 4 C3.67 4.598125 3.34 5.19625 3 5.8125 C1.46818755 9.16333973 2.13572978 11.48118552 3 15 C4.6381248 17.94862465 5.83414418 19.57199939 9.04296875 20.75 C11.00904001 21.25108719 13.00433899 21.63412881 15 22 C14.67 22.99 14.34 23.98 14 25 C2.04826462 23.89441682 2.04826462 23.89441682 -1.25 20.625 C-4.23549447 16.11333859 -3.83031429 10.14102929 -3 5 C-1.65625 2.12890625 -1.65625 2.12890625 0 0 Z " fill="#C0171B" transform="translate(1065,719)"/>
<path d="M0 0 C1.32 0 2.64 0 4 0 C4.33 1.32 4.66 2.64 5 4 C5.66 4 6.32 4 7 4 C7.33 4.99 7.66 5.98 8 7 C7.53980469 7.87914062 7.07960938 8.75828125 6.60546875 9.6640625 C4.65840612 13.70978387 4.45243625 16.95301448 4.3125 21.375 C4.27833984 22.11105469 4.24417969 22.84710937 4.20898438 23.60546875 C4.12727211 25.40313853 4.06194219 27.20154046 4 29 C2.68 29 1.36 29 0 29 C0 19.43 0 9.86 0 0 Z " fill="#C7030C" transform="translate(907,715)"/>
<path d="M0 0 C3.33167251 0.53189859 5.01387129 1.86619114 7.2265625 4.35546875 C7.5565625 5.67546875 7.8865625 6.99546875 8.2265625 8.35546875 C1.6265625 8.35546875 -4.9734375 8.35546875 -11.7734375 8.35546875 C-8.9356476 1.260994 -7.44698971 -0.2547016 0 0 Z " fill="#FCF2F2" transform="translate(828.7734375,718.64453125)"/>
<path d="M0 0 C2.5713019 1.41584345 3.95179389 2.79817844 6 5 C6 5.99 6 6.98 6 8 C-0.6 8 -7.2 8 -14 8 C-11.16382215 0.90955537 -7.83633276 -1.63632236 0 0 Z " fill="#FCF1F0" transform="translate(683,719)"/>
<path d="M0 0 C2.9375 1.75 2.9375 1.75 5 4 C5.33 5.32 5.66 6.64 6 8 C-0.6 8 -7.2 8 -14 8 C-11.11086347 0.77715867 -7.90393315 -1.42709904 0 0 Z " fill="#FBFAFA" transform="translate(1043,719)"/>
<path d="M0 0 C1.875 0.25 1.875 0.25 4 1 C5.25 3.0625 5.25 3.0625 6 5 C6.66 5 7.32 5 8 5 C8 12.92 8 20.84 8 29 C6.68 29 5.36 29 4 29 C3.9906543 28.39526855 3.98130859 27.79053711 3.97167969 27.16748047 C3.91768278 24.4025212 3.83409606 21.63920094 3.75 18.875 C3.73582031 17.92367187 3.72164062 16.97234375 3.70703125 15.9921875 C3.50098567 10.05807483 2.85617691 6.58113817 -1 2 C-0.67 1.34 -0.34 0.68 0 0 Z " fill="#B80E0E" transform="translate(1119,715)"/>
<path d="M0 0 C1.25 1.875 1.25 1.875 2 4 C2.99 5.485 2.99 5.485 4 7 C4 7.99 4 8.98 4 10 C4.66 10 5.32 10 6 10 C6.33 13.3 6.66 16.6 7 20 C1.25 21.125 1.25 21.125 -1 20 C-3.84665632 19.84956694 -6.65252118 19.76870265 -9.5 19.75 C-10.28503906 19.729375 -11.07007813 19.70875 -11.87890625 19.6875 C-14.42099913 19.63517917 -14.42099913 19.63517917 -18 20 C-18.66 20.99 -19.32 21.98 -20 23 C-20.33 21.35 -20.66 19.7 -21 18 C-12.75 18 -4.5 18 4 18 C2.46726947 9.2474139 2.46726947 9.2474139 -3 4 C-7.63749702 1.08500188 -12.83347556 1.95829426 -18 3 C-20.23522553 3.9731026 -20.23522553 3.9731026 -22 5 C-22 4.01 -22 3.02 -22 2 C-15.34576765 -0.62667066 -6.95966284 -2.26189042 0 0 Z " fill="#FDCCCA" transform="translate(838,713)"/>
<path d="M0 0 C2.375 2.6875 2.375 2.6875 4 5 C3 7 2 9 1 11 C-5.93 11 -12.86 11 -20 11 C-20 10.67 -20 10.34 -20 10 C-13.4 10 -6.8 10 0 10 C-3.1351746 4.12163215 -3.1351746 4.12163215 -6.359375 2.9765625 C-7.54273438 2.80253906 -7.54273438 2.80253906 -8.75 2.625 C-9.94882813 2.42777344 -9.94882813 2.42777344 -11.171875 2.2265625 C-11.77515625 2.15179687 -12.3784375 2.07703125 -13 2 C-12.34 1.01 -11.68 0.02 -11 -1 C-15.455 0.485 -15.455 0.485 -20 2 C-17.57961783 -1.75159236 -17.57961783 -1.75159236 -15.25 -2.75 C-9.28605926 -3.41266008 -5.15052291 -3.31922588 0 0 Z " fill="#BC1B1F" transform="translate(1049,717)"/>
<path d="M0 0 C0.99 0 1.98 0 3 0 C3 9.24 3 18.48 3 28 C2.01 28 1.02 28 0 28 C0 26.68 0 25.36 0 24 C-0.99 23.67 -1.98 23.34 -3 23 C-2.83628906 22.31550781 -2.67257812 21.63101563 -2.50390625 20.92578125 C-1.93552966 17.6256722 -1.90369233 14.53445931 -1.9375 11.1875 C-1.94652344 10.02605469 -1.95554687 8.86460937 -1.96484375 7.66796875 C-1.97644531 6.78753906 -1.98804688 5.90710938 -2 5 C-1.34 5 -0.68 5 0 5 C0 3.35 0 1.7 0 0 Z " fill="#C5050A" transform="translate(728,715)"/>
<path d="M0 0 C1.32 0 2.64 0 4 0 C4 9.57 4 19.14 4 29 C2.68 29 1.36 29 0 29 C0 19.43 0 9.86 0 0 Z " fill="#BD0609" transform="translate(943,715)"/>
<path d="M0 0 C2.68656601 2.20317005 3.89617725 3.35049382 4.45410156 6.84082031 C4.42268066 8.44328613 4.42268066 8.44328613 4.390625 10.078125 C4.37128906 11.81835938 4.37128906 11.81835938 4.3515625 13.59375 C4.31804688 14.8003125 4.28453125 16.006875 4.25 17.25 C4.23195313 18.47203125 4.21390625 19.6940625 4.1953125 20.953125 C4.148181 23.96954078 4.08239413 26.98437491 4 30 C1.69 30 -0.62 30 -3 30 C-3.02505615 29.43490723 -3.0501123 28.86981445 -3.07592773 28.28759766 C-3.19179956 25.73316258 -3.31456537 23.1791045 -3.4375 20.625 C-3.47681641 19.73554687 -3.51613281 18.84609375 -3.55664062 17.9296875 C-3.61948242 16.65351562 -3.61948242 16.65351562 -3.68359375 15.3515625 C-3.72025146 14.56604004 -3.75690918 13.78051758 -3.79467773 12.97119141 C-3.890891 10.92476504 -3.890891 10.92476504 -5 9 C-6.65 10.65 -8.3 12.3 -10 14 C-11 12 -11 12 -10.0625 8.875 C-9.711875 7.92625 -9.36125 6.9775 -9 6 C-10.32 5.67 -11.64 5.34 -13 5 C-12 4 -12 4 -8.625 3.75 C-5 4 -5 4 -3.29174805 5.1965332 C-1.56104893 7.61283908 -1.65580387 9.15135655 -1.70703125 12.10546875 C-1.71669922 13.08837891 -1.72636719 14.07128906 -1.73632812 15.08398438 C-1.76146484 16.10814453 -1.78660156 17.13230469 -1.8125 18.1875 C-1.82603516 19.22326172 -1.83957031 20.25902344 -1.85351562 21.32617188 C-1.88888611 23.88463699 -1.93824456 26.4420578 -2 29 C-0.35 29 1.3 29 3 29 C2.91864935 25.45742654 2.80584824 21.9165153 2.6875 18.375 C2.66494141 17.37597656 2.64238281 16.37695312 2.61914062 15.34765625 C2.41613893 9.77433707 2.01837664 5.74200727 -1 1 C-0.67 0.67 -0.34 0.34 0 0 Z " fill="#FDDCDA" transform="translate(929,715)"/>
<path d="M0 0 C0.66 0 1.32 0 2 0 C2 9.57 2 19.14 2 29 C3.32 29 4.64 29 6 29 C5.96519531 27.91460938 5.93039062 26.82921875 5.89453125 25.7109375 C5.86637612 24.26564058 5.83907781 22.82032679 5.8125 21.375 C5.78736328 20.66214844 5.76222656 19.94929687 5.73632812 19.21484375 C5.67008688 14.40131308 6.34556326 11.17768494 9 7 C9.66 6.67 10.32 6.34 11 6 C11.33 6.99 11.66 7.98 12 9 C11.01 9.495 11.01 9.495 10 10 C8.54650045 14.36049864 8.60860644 18.81208497 8.39453125 23.37109375 C8.10148709 28.89851291 8.10148709 28.89851291 7 30 C4.69 30 2.38 30 0 30 C0 20.1 0 10.2 0 0 Z " fill="#FDCCC7" transform="translate(905,715)"/>
<path d="M0 0 C0.99 0.33 1.98 0.66 3 1 C3 9.25 3 17.5 3 26 C2.01 26 1.02 26 0 26 C0 24.68 0 23.36 0 22 C-0.99 22 -1.98 22 -3 22 C-2.89171875 20.69675781 -2.89171875 20.69675781 -2.78125 19.3671875 C-2.6884375 18.21476563 -2.595625 17.06234375 -2.5 15.875 C-2.4071875 14.73804688 -2.314375 13.60109375 -2.21875 12.4296875 C-2.0174779 9.27402851 -1.96157096 6.16078835 -2 3 C-1.34 3 -0.68 3 0 3 C0 2.01 0 1.02 0 0 Z " fill="#C2090F" transform="translate(1088,717)"/>
<path d="M0 0 C1.32 0 2.64 0 4 0 C4 3.63 4 7.26 4 11 C6.64 11 9.28 11 12 11 C12 12.32 12 13.64 12 15 C9.36 15 6.72 15 4 15 C4 14.34 4 13.68 4 13 C2.68 13.33 1.36 13.66 0 14 C0 14.33 0 14.66 0 15 C-2.31 15 -4.62 15 -7 15 C-7 13.68 -7 12.36 -7 11 C-4.69 11 -2.38 11 0 11 C0 7.37 0 3.74 0 0 Z " fill="#C10808" transform="translate(1006,704)"/>
<path d="M0 0 C8.25 0 16.5 0 25 0 C25 0.33 25 0.66 25 1 C24.00818726 1.03758423 24.00818726 1.03758423 22.99633789 1.07592773 C20.01817695 1.19153102 17.0403608 1.31441754 14.0625 1.4375 C12.50112305 1.49647461 12.50112305 1.49647461 10.90820312 1.55664062 C9.42416992 1.61948242 9.42416992 1.61948242 7.91015625 1.68359375 C6.99371338 1.72025146 6.07727051 1.75690918 5.13305664 1.79467773 C3.0179272 1.77003864 3.0179272 1.77003864 2 3 C1.87510302 5.40250532 1.8139921 7.77772785 1.79467773 10.18188477 C1.78477814 10.93305573 1.77487854 11.68422668 1.76467896 12.4581604 C1.73297454 14.95254312 1.70827141 17.44694491 1.68359375 19.94140625 C1.66303193 21.66634123 1.64203567 23.39127108 1.62062073 25.11619568 C1.56532029 29.66506814 1.51594631 34.21398667 1.46777344 38.76293945 C1.41761646 43.40124633 1.36190017 48.03948598 1.30664062 52.67773438 C1.19896161 61.78509888 1.09753843 70.89252165 1 80 C0.67 80 0.34 80 0 80 C0 53.6 0 27.2 0 0 Z " fill="#E1E1E1" transform="translate(633,608)"/>
<path d="M0 0 C1 3 1 3 1 6 C7.93 6.33 14.86 6.66 22 7 C22 7.66 22 8.32 22 9 C22.99 9 23.98 9 25 9 C25 7.35 25 5.7 25 4 C25.33 4 25.66 4 26 4 C26 5.98 26 7.96 26 10 C25.19256348 9.98952637 24.38512695 9.97905273 23.55322266 9.96826172 C19.91051318 9.92680169 16.26785325 9.90070562 12.625 9.875 C11.35398437 9.85824219 10.08296875 9.84148438 8.7734375 9.82421875 C6.95585938 9.81455078 6.95585938 9.81455078 5.1015625 9.8046875 C3.98088379 9.79421387 2.86020508 9.78374023 1.70556641 9.77294922 C-1.14977843 9.71944677 -1.14977843 9.71944677 -3 12 C-3.08090971 10.37581255 -3.13914995 8.75048255 -3.1875 7.125 C-3.22230469 6.22007812 -3.25710938 5.31515625 -3.29296875 4.3828125 C-3.19628906 3.59648438 -3.09960938 2.81015625 -3 2 C-2.01 1.34 -1.02 0.68 0 0 Z " fill="#B70A0C" transform="translate(668,721)"/>
<path d="M0 0 C1.37562854 1.28965176 2.70766393 2.62689293 4 4 C4 4.66 4 5.32 4 6 C5.32 5.67 6.64 5.34 8 5 C8.12375 5.804375 8.2475 6.60875 8.375 7.4375 C8.58125 8.283125 8.7875 9.12875 9 10 C9.66 10.33 10.32 10.66 11 11 C10.32829194 14.8063457 9.27253436 18.35206816 8 22 C7.34 22 6.68 22 6 22 C4.79428057 19.09053687 3.61371775 16.17150084 2.4375 13.25 C2.09525391 12.425 1.75300781 11.6 1.40039062 10.75 C1.08134766 9.95078125 0.76230469 9.1515625 0.43359375 8.328125 C-0.01415405 7.22839355 -0.01415405 7.22839355 -0.47094727 6.10644531 C-1.07674986 3.69441726 -0.7935828 2.32784287 0 0 Z " fill="#FDF5F0" transform="translate(786,714)"/>
<path d="M0 0 C1.65 0 3.3 0 5 0 C5.33 0.66 5.66 1.32 6 2 C4.35 2 2.7 2 1 2 C1.28875 2.62648438 1.5775 3.25296875 1.875 3.8984375 C2.24625 4.71570313 2.6175 5.53296875 3 6.375 C3.556875 7.59316406 3.556875 7.59316406 4.125 8.8359375 C5 11 5 11 5 13 C4.01 13 3.02 13 2 13 C1.67 11.35 1.34 9.7 1 8 C0.34 8.66 -0.32 9.32 -1 10 C-1 9.01 -1 8.02 -1 7 C-2.32 7.33 -3.64 7.66 -5 8 C-5.02505615 8.72179443 -5.0501123 9.44358887 -5.07592773 10.18725586 C-5.19151302 13.437535 -5.31440774 16.68749688 -5.4375 19.9375 C-5.47681641 21.07380859 -5.51613281 22.21011719 -5.55664062 23.38085938 C-5.59853516 24.46044922 -5.64042969 25.54003906 -5.68359375 26.65234375 C-5.72025146 27.65257568 -5.75690918 28.65280762 -5.79467773 29.68334961 C-6 32 -6 32 -7 33 C-8.66617115 33.04063832 -10.33388095 33.042721 -12 33 C-12 32.34 -12 31.68 -12 31 C-10.35 31 -8.7 31 -7 31 C-7 21.43 -7 11.86 -7 2 C-5.35 1.67 -3.7 1.34 -2 1 C-1.67 1.33 -1.34 1.66 -1 2 C-0.67 1.34 -0.34 0.68 0 0 Z " fill="#FBEBE9" transform="translate(779,713)"/>
<path d="M0 0 C2.31 0 4.62 0 7 0 C7 8.25 7 16.5 7 25 C8.32 25 9.64 25 11 25 C11 16.75 11 8.5 11 0 C13.64 0 16.28 0 19 0 C18.67 0.66 18.34 1.32 18 2 C16.35 2 14.7 2 13 2 C13 9.92 13 17.84 13 26 C10.69 26 8.38 26 6 26 C6 17.75 6 9.5 6 1 C4.02 1 2.04 1 0 1 C0 0.67 0 0.34 0 0 Z " fill="#F8C1BD" transform="translate(999,719)"/>
<path d="M0 0 C5.9985383 1.09064333 11.92375773 1.78728015 18 2.25 C18 2.58 18 2.91 18 3.25 C16.35 3.25 14.7 3.25 13 3.25 C12.67 4.57 12.34 5.89 12 7.25 C10.989375 6.59 9.97875 5.93 8.9375 5.25 C5.13547593 3.10369609 2.40321363 2.60953256 -2 3.25 C-6.44842636 5.55975984 -8.81678671 7.76900246 -11 12.25 C-11.36012333 15.37353789 -11.36012333 15.37353789 -11.1875 18.5625 C-11.16042969 19.63113281 -11.13335938 20.69976563 -11.10546875 21.80078125 C-11.07066406 22.60902344 -11.03585937 23.41726563 -11 24.25 C-11.66 24.25 -12.32 24.25 -13 24.25 C-13.05397335 21.8122037 -13.09365616 19.37560315 -13.125 16.9375 C-13.14175781 16.24720703 -13.15851562 15.55691406 -13.17578125 14.84570312 C-13.21217794 11.07864604 -13.14378864 9.46568296 -11 6.25 C-10.34 6.25 -9.68 6.25 -9 6.25 C-9 4.93 -9 3.61 -9 2.25 C-6.57829317 -1.61800397 -4.13175845 -0.81443316 0 0 Z " fill="#F9F4EF" transform="translate(714,711.75)"/>
<path d="M0 0 C2.3125 0.3125 2.3125 0.3125 3.3125 1.3125 C3.35313832 2.97867115 3.355221 4.64638095 3.3125 6.3125 C-5.9048913 7.70380435 -5.9048913 7.70380435 -8.6875 6.3125 C-8.6875 4.9925 -8.6875 3.6725 -8.6875 2.3125 C-9.6775 2.3125 -10.6675 2.3125 -11.6875 2.3125 C-11.6875 11.5525 -11.6875 20.7925 -11.6875 30.3125 C-12.0175 30.3125 -12.3475 30.3125 -12.6875 30.3125 C-12.6875 20.7425 -12.6875 11.1725 -12.6875 1.3125 C-11.0375 1.3125 -9.3875 1.3125 -7.6875 1.3125 C-7.3575 2.3025 -7.0275 3.2925 -6.6875 4.3125 C-6.130625 3.6525 -5.57375 2.9925 -5 2.3125 C-2.6875 0.3125 -2.6875 0.3125 0 0 Z " fill="#C54545" transform="translate(655.6875,713.6875)"/>
<path d="M0 0 C0.33 0 0.66 0 1 0 C1 9.57 1 19.14 1 29 C-0.65 29 -2.3 29 -4 29 C-4.33 28.01 -4.66 27.02 -5 26 C-5.825 26.66 -6.65 27.32 -7.5 28 C-11.42572297 30.62335042 -14.35499028 30.44951707 -19 30 C-21.5 29 -21.5 29 -23 28 C-20.47946405 26.73973202 -19.1457902 27.08125555 -16.375 27.4375 C-15.55773438 27.53933594 -14.74046875 27.64117188 -13.8984375 27.74609375 C-13.27195312 27.82988281 -12.64546875 27.91367187 -12 28 C-11.67 27.34 -11.34 26.68 -11 26 C-12.98 26 -14.96 26 -17 26 C-17 25.67 -17 25.34 -17 25 C-15.9275 24.896875 -14.855 24.79375 -13.75 24.6875 C-10.14179128 24.02599507 -8.63604977 23.42516579 -6 21 C-6 21.99 -6 22.98 -6 24 C-5.01 24 -4.02 24 -3 24 C-3 25.32 -3 26.64 -3 28 C-2.01 28 -1.02 28 0 28 C0 18.76 0 9.52 0 0 Z " fill="#C3373B" transform="translate(1091,715)"/>
<path d="M0 0 C0.66 0 1.32 0 2 0 C2 7.26 2 14.52 2 22 C0.35 22 -1.3 22 -3 22 C-3 15.4 -3 8.8 -3 2 C-2.01 3.485 -2.01 3.485 -1 5 C-0.67 3.35 -0.34 1.7 0 0 Z " fill="#BF2528" transform="translate(930,722)"/>
<path d="M0 0 C0.66 0 1.32 0 2 0 C2.33 0.66 2.66 1.32 3 2 C11.25 2 19.5 2 28 2 C28 2.99 28 3.98 28 5 C22.21578064 5.9349834 16.47453012 6.33717942 10.625 6.625 C9.71105469 6.6765625 8.79710937 6.728125 7.85546875 6.78125 C6.98792969 6.82507813 6.12039063 6.86890625 5.2265625 6.9140625 C4.43846191 6.9548291 3.65036133 6.9955957 2.83837891 7.03759766 C1 7 1 7 0 6 C-0.04080783 4.00041636 -0.04254356 1.99954746 0 0 Z " fill="#B40C06" transform="translate(813,725)"/>
<path d="M0 0 C0.94875 0.04125 1.8975 0.0825 2.875 0.125 C2.215 1.445 1.555 2.765 0.875 4.125 C0.215 4.125 -0.445 4.125 -1.125 4.125 C-1.125 4.785 -1.125 5.445 -1.125 6.125 C-6.70826712 9.09482294 -10.93727481 9.71989816 -17.125 8.125 C-18.115 7.465 -19.105 6.805 -20.125 6.125 C-15.81608818 4.57821114 -11.56361622 3.54187928 -7.078125 2.6875 C-3.80771792 1.74562276 -3.73911217 0.14956449 0 0 Z " fill="#C31E22" transform="translate(1050.125,735.875)"/>
<path d="M0 0 C0.66 0 1.32 0 2 0 C2 1.98 2 3.96 2 6 C2.66 6 3.32 6 4 6 C3.67 7.65 3.34 9.3 3 11 C2.01 11 1.02 11 0 11 C0 11.99 0 12.98 0 14 C-1.093125 14.309375 -2.18625 14.61875 -3.3125 14.9375 C-5.55407994 15.58337897 -7.7869351 16.2623117 -10 17 C-10 16.01 -10 15.02 -10 14 C-9.01 14 -8.02 14 -7 14 C-7 13.34 -7 12.68 -7 12 C-10.04213267 10.47893366 -13.28047572 10.62570662 -16.625 10.4375 C-17.33140625 10.39431641 -18.0378125 10.35113281 -18.765625 10.30664062 C-20.51018537 10.20055249 -22.25506697 10.09977111 -24 10 C-24 9.67 -24 9.34 -24 9 C-15.75 9 -7.5 9 1 9 C0.67 6.03 0.34 3.06 0 0 Z " fill="#FBCBC8" transform="translate(1053,722)"/>
<path d="M0 0 C2.62113708 0 4.50935112 0.31292445 7 1 C7 3.31 7 5.62 7 8 C2.58774263 9.47075246 -0.48281619 10.36884358 -5 9 C-4.34 8.67 -3.68 8.34 -3 8 C-2.64984951 6.33678518 -2.31802943 4.66965451 -2 3 C-1.34 2.01 -0.68 1.02 0 0 Z " fill="#FDFAFA" transform="translate(1078,728)"/>
<path d="M0 0 C2 2 2 2 2.22705078 4.24658203 C2.21657715 5.15778809 2.20610352 6.06899414 2.1953125 7.0078125 C2.18886719 7.99394531 2.18242188 8.98007812 2.17578125 9.99609375 C2.15902344 11.02863281 2.14226562 12.06117188 2.125 13.125 C2.11597656 14.16527344 2.10695313 15.20554687 2.09765625 16.27734375 C2.07403747 18.85179092 2.04110149 21.42578212 2 24 C0.68 24 -0.64 24 -2 24 C-2 18.39 -2 12.78 -2 7 C-1.34 7 -0.68 7 0 7 C0 4.69 0 2.38 0 0 Z " fill="#B50E13" transform="translate(1143,720)"/>
<path d="M0 0 C1.98 0 3.96 0 6 0 C6.33 1.65 6.66 3.3 7 5 C6.195625 5.28875 5.39125 5.5775 4.5625 5.875 C1.8673532 6.73262568 1.8673532 6.73262568 1 9 C1 9.66 1 10.32 1 11 C1 12.66666667 1 14.33333333 1 16 C0.01 16 -0.98 16 -2 16 C-3.80411967 13.24075815 -4.0127245 12.11027897 -3.625 8.75 C-3.41875 7.8425 -3.2125 6.935 -3 6 C-2.67 6 -2.34 6 -2 6 C-1.34 4.02 -0.68 2.04 0 0 Z " fill="#FCF0F0" transform="translate(765,704)"/>
<path d="M0 0 C0.33 0 0.66 0 1 0 C1 9.57 1 19.14 1 29 C-0.65 29 -2.3 29 -4 29 C-4.33 28.01 -4.66 27.02 -5 26 C-5.825 26.66 -6.65 27.32 -7.5 28 C-11.39667361 30.616338 -14.39435769 30.46056423 -19 30 C-19.66 29.34 -20.32 28.68 -21 28 C-17.37 28 -13.74 28 -10 28 C-10 26.68 -10 25.36 -10 24 C-9.34 24 -8.68 24 -8 24 C-7.67 23.01 -7.34 22.02 -7 21 C-5 22.25 -5 22.25 -3 24 C-3 25.32 -3 26.64 -3 28 C-2.01 28 -1.02 28 0 28 C0 18.76 0 9.52 0 0 Z " fill="#C63435" transform="translate(731,715)"/>
<path d="M0 0 C0.33 0 0.66 0 1 0 C1 9.9 1 19.8 1 30 C-1.97 30 -4.94 30 -8 30 C-8.99 30.350625 -9.98 30.70125 -11 31.0625 C-15.16794708 32.36498346 -18.74858183 31.6991221 -23 31 C-23.33 30.01 -23.66 29.02 -24 28 C-23.505 28.165 -23.01 28.33 -22.5 28.5 C-17.04218073 29.59156385 -12.84569977 29.78160859 -8 27 C-7.01 26.34 -6.02 25.68 -5 25 C-5 26.32 -5 27.64 -5 29 C-3.35 29 -1.7 29 0 29 C0 19.43 0 9.86 0 0 Z " fill="#FDE5DB" transform="translate(732,715)"/>
<path d="M0 0 C1.65 0 3.3 0 5 0 C5 6.93 5 13.86 5 21 C4.67 21 4.34 21 4 21 C4 15.72 4 10.44 4 5 C3.34 5 2.68 5 2 5 C2.33 10.61 2.66 16.22 3 22 C2.01 21.67 1.02 21.34 0 21 C0 14.07 0 7.14 0 0 Z " fill="#BD2C2C" transform="translate(871,715)"/>
<path d="M0 0 C1.65 0 3.3 0 5 0 C5 3.96 5 7.92 5 12 C4.01 11.67 3.02 11.34 2 11 C2 11.66 2 12.32 2 13 C-0.64 13 -3.28 13 -6 13 C-6 13.66 -6 14.32 -6 15 C-4.35 15 -2.7 15 -1 15 C-1 15.33 -1 15.66 -1 16 C-2.98 16 -4.96 16 -7 16 C-7 14.68 -7 13.36 -7 12 C-4.69 12 -2.38 12 0 12 C0 8.04 0 4.08 0 0 Z " fill="#BA2226" transform="translate(747,703)"/>
<path d="M0 0 C1.80030122 2.70045182 2.93377066 5.06677881 4.125 8.0625 C4.47820313 8.94035156 4.83140625 9.81820312 5.1953125 10.72265625 C6 13 6 13 6 15 C6.66 15 7.32 15 8 15 C8.12375 14.278125 8.2475 13.55625 8.375 12.8125 C8.9904931 10.04278106 9.88444374 7.6029646 11 5 C11.33 5 11.66 5 12 5 C12.7162143 12.04277391 12.7162143 12.04277391 10.76953125 14.64453125 C8.11032015 16.92291705 6.54682803 18 3 18 C2.49095343 16.12743583 1.99317545 14.25180659 1.5 12.375 C1.08234375 10.80878906 1.08234375 10.80878906 0.65625 9.2109375 C0.00881404 6.04312582 -0.1161292 3.22258533 0 0 Z " fill="#FBE1DD" transform="translate(786,731)"/>
<path d="M0 0 C-0.93972656 0.70576172 -0.93972656 0.70576172 -1.8984375 1.42578125 C-2.71570312 2.04839844 -3.53296875 2.67101562 -4.375 3.3125 C-5.18710938 3.92738281 -5.99921875 4.54226563 -6.8359375 5.17578125 C-9.19779389 6.99480683 -9.19779389 6.99480683 -11 10 C-11.99 10.33 -12.98 10.66 -14 11 C-13.67 14.63 -13.34 18.26 -13 22 C-15 21 -15 21 -16 18 C-16.14285477 16.37914777 -16.22033073 14.75186483 -16.25 13.125 C-16.27578125 12.28195312 -16.3015625 11.43890625 -16.328125 10.5703125 C-15.9121735 7.31202572 -15.03121007 5.58123924 -13 3 C-10.37109375 1.6015625 -10.37109375 1.6015625 -7.4375 0.625 C-6.46683594 0.28726563 -5.49617188 -0.05046875 -4.49609375 -0.3984375 C-2 -1 -2 -1 0 0 Z " fill="#C40F13" transform="translate(1040,716)"/>
<path d="M0 0 C2.64 0.33 5.28 0.66 8 1 C8 2.65 8 4.3 8 6 C7.01 6.33 6.02 6.66 5 7 C4.87625 8.03125 4.7525 9.0625 4.625 10.125 C3.83191475 15.04212854 2.76832677 18.84750984 0 23 C-0.66 23 -1.32 23 -2 23 C-0.033631 15.63011293 2.69582578 8.86954798 6 2 C4.35 2 2.7 2 1 2 C0.34 4.31 -0.32 6.62 -1 9 C-2.25541557 5.23375329 -1.37061958 3.62811066 0 0 Z " fill="#FCDBD7" transform="translate(800,713)"/>
<path d="M0 0 C0 1.65 0 3.3 0 5 C0.66 5.33 1.32 5.66 2 6 C-0.64 6.66 -3.28 7.32 -6 8 C-6 8.66 -6 9.32 -6 10 C-4.68 10.33 -3.36 10.66 -2 11 C-3.65 11 -5.3 11 -7 11 C-7.33 7.37 -7.66 3.74 -8 0 C-4.71023192 -1.09658936 -3.28696233 -0.79953138 0 0 Z " fill="#FDE4E1" transform="translate(949,704)"/>
<path d="M0 0 C0.33 0 0.66 0 1 0 C1.33 8.91 1.66 17.82 2 27 C2.66 27 3.32 27 4 27 C4 27.66 4 28.32 4 29 C2.0625 30.8125 2.0625 30.8125 -1 32 C-4.15294102 31.35675785 -7.04337938 30.25608066 -10 29 C-8.35 27.68 -6.7 26.36 -5 25 C-5 26.32 -5 27.64 -5 29 C-3.35 29 -1.7 29 0 29 C0 19.43 0 9.86 0 0 Z " fill="#FEF5EE" transform="translate(1092,715)"/>
<path d="M0 0 C0.66 0 1.32 0 2 0 C1.67 2.64 1.34 5.28 1 8 C0.34 8 -0.32 8 -1 8 C-1 8.99 -1 9.98 -1 11 C-2.670625 11.4640625 -2.670625 11.4640625 -4.375 11.9375 C-7.7945155 12.82326483 -7.7945155 12.82326483 -10 14 C-9.67 12.68 -9.34 11.36 -9 10 C-7.35 10 -5.7 10 -4 10 C-4.33 9.34 -4.66 8.68 -5 8 C-7.95839355 7.97310551 -10.91654427 7.95321259 -13.875 7.9375 C-14.71675781 7.92912109 -15.55851563 7.92074219 -16.42578125 7.91210938 C-17.23144531 7.90888672 -18.03710938 7.90566406 -18.8671875 7.90234375 C-19.61081543 7.89710693 -20.35444336 7.89187012 -21.12060547 7.88647461 C-23.09132568 7.88213364 -23.09132568 7.88213364 -25 9 C-25 8.01 -25 7.02 -25 6 C-16.75 6 -8.5 6 0 6 C0 4.02 0 2.04 0 0 Z " fill="#FABEBC" transform="translate(694,725)"/>
<path d="M0 0 C2.10407096 1.69636171 2.93240678 2.54981464 3.34057617 5.26831055 C3.32486572 6.13238525 3.30915527 6.99645996 3.29296875 7.88671875 C3.28330078 8.82451172 3.27363281 9.76230469 3.26367188 10.72851562 C3.23853516 11.70498047 3.21339844 12.68144531 3.1875 13.6875 C3.17396484 14.67556641 3.16042969 15.66363281 3.14648438 16.68164062 C3.11112203 19.12164231 3.06177033 21.56054719 3 24 C4.65 24 6.3 24 8 24 C8 24.33 8 24.66 8 25 C5.69 25 3.38 25 1 25 C0.31728707 16.64895793 -0.15392039 8.38011029 0 0 Z " fill="#F9C6BE" transform="translate(1138,720)"/>
<path d="M0 0 C1.2065625 0.0309375 1.2065625 0.0309375 2.4375 0.0625 C1.77849246 3.13786854 0.89882217 5.13985566 -0.5625 8.0625 C6.0375 8.0625 12.6375 8.0625 19.4375 8.0625 C19.4375 8.3925 19.4375 8.7225 19.4375 9.0625 C12.5075 9.0625 5.5775 9.0625 -1.5625 9.0625 C-1.8925 8.0725 -2.2225 7.0825 -2.5625 6.0625 C-3.5525 6.3925 -4.5425 6.7225 -5.5625 7.0625 C-3.33446653 0.08132845 -3.33446653 0.08132845 0 0 Z " fill="#C93334" transform="translate(817.5625,718.9375)"/>
<path d="M0 0 C1.32 0 2.64 0 4 0 C4 1.65 4 3.3 4 5 C3.67 4.34 3.34 3.68 3 3 C2.34 3 1.68 3 1 3 C1 10.92 1 18.84 1 27 C1.66 27 2.32 27 3 27 C3 23.04 3 19.08 3 15 C3.33 15 3.66 15 4 15 C4 19.62 4 24.24 4 29 C2.68 29 1.36 29 0 29 C0 19.43 0 9.86 0 0 Z " fill="#A61116" transform="translate(907,715)"/>
<path d="M0 0 C1.98 0 3.96 0 6 0 C4.64728697 3.20379402 3.50176755 5.55726392 0.875 7.875 C-3.11864395 9.43773024 -6.76405738 9.2491731 -11 9 C-11 8.34 -11 7.68 -11 7 C-7.33694766 6.25073929 -4.57644848 5.7619986 -1 7 C-1.33 6.01 -1.66 5.02 -2 4 C-1.0625 1.8125 -1.0625 1.8125 0 0 Z " fill="#C0090A" transform="translate(628,735)"/>
<path d="M0 0 C0.33 0 0.66 0 1 0 C1 6.93 1 13.86 1 21 C1.66 21 2.32 21 3 21 C3 14.07 3 7.14 3 0 C3.33 0 3.66 0 4 0 C4 7.92 4 15.84 4 24 C2.68 24 1.36 24 0 24 C0 16.08 0 8.16 0 0 Z " fill="#B10E10" transform="translate(1006,720)"/>
<path d="M0 0 C4.59682226 0.53629593 6.90861895 1.92884299 10.75 4.4375 C11.41 3.4475 12.07 2.4575 12.75 1.4375 C12.75 3.0875 12.75 4.7375 12.75 6.4375 C12.09 6.4375 11.43 6.4375 10.75 6.4375 C10.42 7.7575 10.09 9.0775 9.75 10.4375 C8.08333333 8.77083333 6.41666667 7.10416667 4.75 5.4375 C4.75 4.7775 4.75 4.1175 4.75 3.4375 C1.12 3.4375 -2.51 3.4375 -6.25 3.4375 C-3.25 0.4375 -3.25 0.4375 0 0 Z " fill="#BA292C" transform="translate(715.25,713.5625)"/>
<path d="M0 0 C2.475 0.495 2.475 0.495 5 1 C4.67 3.31 4.34 5.62 4 8 C3.01 8 2.02 8 1 8 C1 7.34 1 6.68 1 6 C-5.93 6 -12.86 6 -20 6 C-20 5.67 -20 5.34 -20 5 C-13.4 5 -6.8 5 0 5 C0 3.35 0 1.7 0 0 Z " fill="#CF302F" transform="translate(689,722)"/>
<path d="M0 0 C-0.62068039 2.79306176 -1.34515323 4.52989212 -3.703125 6.22265625 C-7.90202118 8.45832807 -11.1573819 9.48426181 -16 9 C-16 8.67 -16 8.34 -16 8 C-13.69 7.34 -11.38 6.68 -9 6 C-9.33 5.01 -9.66 4.02 -10 3 C-6.48812804 0.59185923 -4.27343092 -0.36629408 0 0 Z " fill="#BA2223" transform="translate(840,736)"/>
<path d="M0 0 C0.66 1.32 1.32 2.64 2 4 C1.34 3.67 0.68 3.34 0 3 C-2.3329866 2.95977609 -4.66706666 2.95679753 -7 3 C-7.66 4.65 -8.32 6.3 -9 8 C-9.33 8 -9.66 8 -10 8 C-10.33 13.61 -10.66 19.22 -11 25 C-11.33 25 -11.66 25 -12 25 C-12.0582253 21.91674642 -12.09367134 18.83363495 -12.125 15.75 C-12.14175781 14.87730469 -12.15851563 14.00460937 -12.17578125 13.10546875 C-12.18222656 12.26113281 -12.18867187 11.41679688 -12.1953125 10.546875 C-12.20578613 9.77182617 -12.21625977 8.99677734 -12.22705078 8.19824219 C-11.96607773 5.67157409 -11.36445764 4.13710234 -10 2 C-6.3558226 -0.4294516 -4.28758728 -0.16179575 0 0 Z " fill="#FACFCC" transform="translate(1120,719)"/>
<path d="M0 0 C0.66 0 1.32 0 2 0 C1.84015625 0.55945313 1.6803125 1.11890625 1.515625 1.6953125 C0.04551887 8.26624142 0.35547204 14.22949739 4 20 C2.125 20.625 2.125 20.625 0 21 C-2 19 -2 19 -2.265625 15.91796875 C-2.26046875 14.68691406 -2.2553125 13.45585938 -2.25 12.1875 C-2.25515625 10.96417969 -2.2603125 9.74085938 -2.265625 8.48046875 C-2.01467894 5.19233727 -1.41563823 2.94924631 0 0 Z " fill="#FBD9D4" transform="translate(812,720)"/>
<path d="M0 0 C4.875 1.875 4.875 1.875 6 3 C6.33 2.01 6.66 1.02 7 0 C8.32 0 9.64 0 11 0 C10.67 0.99 10.34 1.98 10 3 C9.34 2.67 8.68 2.34 8 2 C8 2.99 8 3.98 8 5 C7.34 5 6.68 5 6 5 C5.67 6.32 5.34 7.64 5 9 C4.60167969 8.52949219 4.20335937 8.05898438 3.79296875 7.57421875 C1.6382607 5.68239447 0.10908118 5.33939211 -2.6875 4.8125 C-3.89986328 4.57466797 -3.89986328 4.57466797 -5.13671875 4.33203125 C-5.75160156 4.22246094 -6.36648438 4.11289062 -7 4 C-7 3.67 -7 3.34 -7 3 C-4.69 3 -2.38 3 0 3 C0 2.01 0 1.02 0 0 Z " fill="#B41C20" transform="translate(1080,715)"/>
<path d="M0 0 C1.375 2.5625 1.375 2.5625 2 5 C1.01 5.495 1.01 5.495 0 6 C-1.59375 5.1875 -1.59375 5.1875 -3.5 4 C-8.41180386 1.40068774 -12.68652471 1.71681379 -18 3 C-20.22359427 3.98573108 -20.22359427 3.98573108 -22 5 C-22 4.01 -22 3.02 -22 2 C-15.45729151 -0.58264809 -6.81697352 -2.38594073 0 0 Z " fill="#FEE4DF" transform="translate(838,713)"/>
<path d="M0 0 C2 2 2 2 2.13525391 4.43017578 C2.08288574 5.4251709 2.03051758 6.42016602 1.9765625 7.4453125 C1.89921875 9.05986328 1.89921875 9.05986328 1.8203125 10.70703125 C1.75585938 11.83496094 1.69140625 12.96289062 1.625 14.125 C1.56828125 15.26066406 1.5115625 16.39632812 1.453125 17.56640625 C1.31135306 20.3782163 1.15991439 23.18917281 1 26 C-2.12664982 19.74670037 -2.12664982 19.74670037 -1.9140625 15.68359375 C-1.87023437 14.83732422 -1.82640625 13.99105469 -1.78125 13.11914062 C-1.7296875 12.23419922 -1.678125 11.34925781 -1.625 10.4375 C-1.58117187 9.54869141 -1.53734375 8.65988281 -1.4921875 7.74414062 C-1.12887788 1.12887788 -1.12887788 1.12887788 0 0 Z " fill="#CD0105" transform="translate(894,717)"/>
<path d="M0 0 C-0.66 0 -1.32 0 -2 0 C-2.28875 0.5775 -2.5775 1.155 -2.875 1.75 C-4 4 -4 4 -5.0625 5.78125 C-6.23973259 8.56736712 -6.19673613 10.73708249 -6.125 13.75 C-6.10695313 14.73484375 -6.08890625 15.7196875 -6.0703125 16.734375 C-6.04710937 17.48203125 -6.02390625 18.2296875 -6 19 C-6.99 18.67 -7.98 18.34 -9 18 C-9.30950345 11.50042757 -8.88761459 5.93418045 -6 0 C-3.50907189 -1.24546405 -2.58919267 -0.7767578 0 0 Z " fill="#FEE3DD" transform="translate(671,717)"/>
<path d="M0 0 C0.99 0.33 1.98 0.66 3 1 C3.6875 3.0625 3.6875 3.0625 4 5 C3.01 5.495 3.01 5.495 2 6 C1.67 6.99 1.34 7.98 1 9 C-5.93 9 -12.86 9 -20 9 C-20 8.67 -20 8.34 -20 8 C-13.4 8 -6.8 8 0 8 C-0.66 6.02 -1.32 4.04 -2 2 C-1.34 1.34 -0.68 0.68 0 0 Z " fill="#CB393B" transform="translate(1049,719)"/>
<path d="M0 0 C3.18970543 0.56581519 4.85213289 2.00807963 7.00390625 4.35546875 C7.81640625 6.60546875 7.81640625 6.60546875 8.00390625 8.35546875 C7.34390625 8.35546875 6.68390625 8.35546875 6.00390625 8.35546875 C6.00390625 7.36546875 6.00390625 6.37546875 6.00390625 5.35546875 C3.69390625 5.35546875 1.38390625 5.35546875 -0.99609375 5.35546875 C-1.32609375 4.69546875 -1.65609375 4.03546875 -1.99609375 3.35546875 C-4.30609375 3.35546875 -6.61609375 3.35546875 -8.99609375 3.35546875 C-6.69090582 -0.10231315 -3.97669573 -0.15379486 0 0 Z " fill="#FEE6DD" transform="translate(1040.99609375,718.64453125)"/>
<path d="M0 0 C3.31529273 0.98562757 4.74949379 1.65447419 6.8125 4.5 C8 7 8 7 8 9 C5.75 9.25 5.75 9.25 3 9 C0.8125 7.125 0.8125 7.125 -1 5 C-1.66 4.34 -2.32 3.68 -3 3 C-2.01 3 -1.02 3 0 3 C0 2.01 0 1.02 0 0 Z " fill="#B51A1D" transform="translate(626,716)"/>
<path d="M0 0 C0.66 0 1.32 0 2 0 C2.33 5.28 2.66 10.56 3 16 C2.01 15.67 1.02 15.34 0 15 C-1.17415577 11.99713037 -1.13443838 9.00739263 -1.125 5.8125 C-1.12757813 4.93207031 -1.13015625 4.05164063 -1.1328125 3.14453125 C-1 1 -1 1 0 0 Z " fill="#C50A0B" transform="translate(704,721)"/>
<path d="M0 0 C1.27172828 2.54345656 0.73272434 3.31733796 0 6 C-0.13929356 7.36676632 -0.24365301 8.7374567 -0.31640625 10.109375 C-0.35830078 10.86347656 -0.40019531 11.61757813 -0.44335938 12.39453125 C-0.50233398 13.56048828 -0.50233398 13.56048828 -0.5625 14.75 C-0.60568359 15.54277344 -0.64886719 16.33554687 -0.69335938 17.15234375 C-0.79902991 19.10137815 -0.89997966 21.05066748 -1 23 C-1.66 23 -2.32 23 -3 23 C-3.08120751 20.10359882 -3.14059421 17.20949088 -3.1875 14.3125 C-3.21263672 13.49587891 -3.23777344 12.67925781 -3.26367188 11.83789062 C-3.32217012 7.02153514 -3.07302376 3.96024846 0 0 Z " fill="#FEDBD6" transform="translate(651,721)"/>
<path d="M0 0 C0.33 0.99 0.66 1.98 1 3 C0.67 3.66 0.34 4.32 0 5 C-0.66 5 -1.32 5 -2 5 C-1.74445946 6.46109063 -1.46999628 7.91888096 -1.1875 9.375 C-1.03667969 10.18710937 -0.88585937 10.99921875 -0.73046875 11.8359375 C-0.12455058 14.35820641 -0.12455058 14.35820641 3 16 C3 16.66 3 17.32 3 18 C3.99 18.33 4.98 18.66 6 19 C2.60601966 18.7090874 0.96886249 17.97716583 -1.8125 15.9375 C-4.29519235 12.60359884 -4.67861484 10.9776979 -4.44140625 6.9375 C-3.75985723 3.94592202 -2.13023828 2.13023828 0 0 Z " fill="#FCDBD5" transform="translate(614,721)"/>
<path d="M0 0 C1.98 0 3.96 0 6 0 C6 3.96 6 7.92 6 12 C5.67 12 5.34 12 5 12 C5 8.37 5 4.74 5 1 C3.68 1 2.36 1 1 1 C1 4.63 1 8.26 1 12 C-1.31 12 -3.62 12 -6 12 C-6.33 13.32 -6.66 14.64 -7 16 C-7 14.02 -7 12.04 -7 10 C-5.68 9.67 -4.36 9.34 -3 9 C-3 9.66 -3 10.32 -3 11 C-2.01 11 -1.02 11 0 11 C0 7.37 0 3.74 0 0 Z " fill="#F0B1AF" transform="translate(1005,703)"/>
<path d="M0 0 C2 1.375 2 1.375 4 3 C4 3.66 4 4.32 4 5 C10.81508864 5.82810601 16.51870203 6.50413785 23 4 C23 4.66 23 5.32 23 6 C16.56242954 8.92193523 10.07113429 9.00606123 3.375 6.8125 C1 5 1 5 0.125 2.3125 C0.08375 1.549375 0.0425 0.78625 0 0 Z " fill="#FBDBD5" transform="translate(1026,738)"/>
<path d="M0 0 C6.13053511 -0.32712342 10.62669111 -0.39366878 16 3 C16 3.99 16 4.98 16 6 C15.443125 5.7834375 14.88625 5.566875 14.3125 5.34375 C8.94811407 3.38647405 4.70147617 2.68901039 -1 3 C-0.67 2.01 -0.34 1.02 0 0 Z " fill="#FDF0E5" transform="translate(615,712)"/>
<path d="M0 0 C1.32 0 2.64 0 4 0 C4 9.57 4 19.14 4 29 C2.68 28.67 1.36 28.34 0 28 C0.99 28 1.98 28 3 28 C3 19.75 3 11.5 3 3 C2.01 3.33 1.02 3.66 0 4 C0 2.68 0 1.36 0 0 Z " fill="#A21416" transform="translate(943,715)"/>
<path d="M0 0 C0 3 0 3 -1 5 C-0.360625 4.835 0.27875 4.67 0.9375 4.5 C4.97586652 3.84067485 8.91807258 3.91996221 13 4 C13.33 2.68 13.66 1.36 14 0 C17 3.75 17 3.75 17 6 C10.4 6 3.8 6 -3 6 C-1 1 -1 1 0 0 Z " fill="#FEE1DD" transform="translate(820,721)"/>
<path d="M0 0 C0.66 0 1.32 0 2 0 C3.5635348 3.12706959 3.39958487 6.57982443 3 10 C2.01 11.485 2.01 11.485 1 13 C0.01 12.67 -0.98 12.34 -2 12 C-1.34 8.04 -0.68 4.08 0 0 Z " fill="#B70E0D" transform="translate(727,726)"/>
<path d="M0 0 C1.2065625 0.0309375 1.2065625 0.0309375 2.4375 0.0625 C2.4375 3.98456909 1.80640506 6.4389278 0.4375 10.0625 C-0.5625 11.0625 -0.5625 11.0625 -3.625 11.125 C-4.594375 11.104375 -5.56375 11.08375 -6.5625 11.0625 C-5.77875 10.485 -4.995 9.9075 -4.1875 9.3125 C-1.76202756 7.23352363 -0.70555583 5.97209667 0.4375 3.0625 C-0.8825 2.4025 -2.2025 1.7425 -3.5625 1.0625 C-2.5625 0.0625 -2.5625 0.0625 0 0 Z " fill="#FCD3D0" transform="translate(632.5625,732.9375)"/>
<path d="M0 0 C2.68656601 2.20317005 3.89617725 3.35049382 4.45410156 6.84082031 C4.4331543 7.90913086 4.41220703 8.97744141 4.390625 10.078125 C4.37773438 11.23828125 4.36484375 12.3984375 4.3515625 13.59375 C4.31804688 14.8003125 4.28453125 16.006875 4.25 17.25 C4.23195313 18.47203125 4.21390625 19.6940625 4.1953125 20.953125 C4.148181 23.96954078 4.08239413 26.98437491 4 30 C3.67 30 3.34 30 3 30 C2.98541748 29.33468262 2.97083496 28.66936523 2.95581055 27.98388672 C2.88098635 24.94702886 2.78443984 21.91122909 2.6875 18.875 C2.66494141 17.82828125 2.64238281 16.7815625 2.61914062 15.703125 C2.42137691 10.02191292 2.11198288 5.82232199 -1 1 C-0.67 0.67 -0.34 0.34 0 0 Z " fill="#FEEBE6" transform="translate(929,715)"/>
<path d="M0 0 C0.33 0.66 0.66 1.32 1 2 C3.02463255 2.65213292 3.02463255 2.65213292 5 3 C4.34 3 3.68 3 3 3 C2.67 4.32 2.34 5.64 2 7 C0.02 7.33 -1.96 7.66 -4 8 C-4 6.68 -4 5.36 -4 4 C-3.34 4 -2.68 4 -2 4 C-1.34 2.68 -0.68 1.36 0 0 Z " fill="#F6FDFB" transform="translate(1053,736)"/>
<path d="M0 0 C1.37478516 0.01740234 1.37478516 0.01740234 2.77734375 0.03515625 C3.69644531 0.04417969 4.61554688 0.05320312 5.5625 0.0625 C6.27277344 0.07410156 6.98304687 0.08570313 7.71484375 0.09765625 C7.71484375 0.75765625 7.71484375 1.41765625 7.71484375 2.09765625 C6.39484375 2.42765625 5.07484375 2.75765625 3.71484375 3.09765625 C3.71484375 3.75765625 3.71484375 4.41765625 3.71484375 5.09765625 C0.74484375 4.60265625 0.74484375 4.60265625 -2.28515625 4.09765625 C-2.61515625 3.10765625 -2.94515625 2.11765625 -3.28515625 1.09765625 C-2.28515625 0.09765625 -2.28515625 0.09765625 0 0 Z " fill="#FCFBFA" transform="translate(1034.28515625,732.90234375)"/>
<path d="M0 0 C-3 2 -3 2 -5 2 C-5.66 3.98 -6.32 5.96 -7 8 C-7.66 8 -8.32 8 -9 8 C-9.33 9.32 -9.66 10.64 -10 12 C-10.08131463 10.56344146 -10.13933559 9.1255517 -10.1875 7.6875 C-10.22230469 6.88699219 -10.25710938 6.08648438 -10.29296875 5.26171875 C-10 3 -10 3 -8.71875 1.21875 C-5.96762333 -0.73204891 -3.25876943 -0.18445865 0 0 Z " fill="#FBE9E3" transform="translate(1138,719)"/>
<path d="M0 0 C0 0.66 0 1.32 0 2 C-0.515625 1.835 -1.03125 1.67 -1.5625 1.5 C-6.45328112 0.49676285 -11.17298434 0.82981438 -16 2 C-16 1.01 -16 0.02 -16 -1 C-9.58464538 -3.13845154 -5.89830388 -3.27683549 0 0 Z " fill="#FCE7DD" transform="translate(1047,714)"/>
<path d="M0 0 C0.33 0 0.66 0 1 0 C1.12117187 0.85464844 1.24234375 1.70929687 1.3671875 2.58984375 C1.53476562 3.69457031 1.70234375 4.79929687 1.875 5.9375 C2.03742187 7.03964844 2.19984375 8.14179687 2.3671875 9.27734375 C2.57601562 10.17582031 2.78484375 11.07429687 3 12 C3.66 12.33 4.32 12.66 5 13 C5.33 12.01 5.66 11.02 6 10 C6.99 11.65 7.98 13.3 9 15 C8.01 15.33 7.02 15.66 6 16 C5.67 16.66 5.34 17.32 5 18 C1.21119276 13.47787523 -0.13898837 10.70210461 -0.0625 4.8125 C-0.05347656 3.91144531 -0.04445313 3.01039063 -0.03515625 2.08203125 C-0.02355469 1.39496094 -0.01195312 0.70789063 0 0 Z " fill="#BA2526" transform="translate(702,724)"/>
<path d="M0 0 C0.99 0.33 1.98 0.66 3 1 C2.21625 1.763125 1.4325 2.52625 0.625 3.3125 C-3.06599869 7.01151017 -3.06599869 7.01151017 -4.1953125 11.91796875 C-4.17210937 12.99691406 -4.14890625 14.07585938 -4.125 15.1875 C-4.10695313 16.27417969 -4.08890625 17.36085938 -4.0703125 18.48046875 C-4.04710937 19.31191406 -4.02390625 20.14335938 -4 21 C-4.66 21 -5.32 21 -6 21 C-6.05397335 18.5622037 -6.09365616 16.12560315 -6.125 13.6875 C-6.14175781 12.99720703 -6.15851562 12.30691406 -6.17578125 11.59570312 C-6.21217794 7.82864604 -6.14378864 6.21568296 -4 3 C-3.34 3 -2.68 3 -2 3 C-2 2.34 -2 1.68 -2 1 C-1.34 0.67 -0.68 0.34 0 0 Z " fill="#FBD9D5" transform="translate(707,715)"/>
<path d="M0 0 C1.65 0 3.3 0 5 0 C5.99 3.3 6.98 6.6 8 10 C7.34 10 6.68 10 6 10 C5.67 8.68 5.34 7.36 5 6 C4.01 7.485 4.01 7.485 3 9 C2.01 6.03 1.02 3.06 0 0 Z " fill="#B21B21" transform="translate(780,715)"/>
<path d="M0 0 C2.31 0.66 4.62 1.32 7 2 C7 2.33 7 2.66 7 3 C5.35 3 3.7 3 2 3 C2 10.59 2 18.18 2 26 C1.67 26 1.34 26 1 26 C0.83227069 22.22921314 0.66599875 18.45836341 0.5 14.6875 C0.42845703 13.0797168 0.42845703 13.0797168 0.35546875 11.43945312 C0.31035156 10.41142578 0.26523437 9.38339844 0.21875 8.32421875 C0.17685547 7.37635498 0.13496094 6.42849121 0.09179688 5.4519043 C0.0237969 3.63561776 0 1.81755902 0 0 Z " fill="#FEEAEC" transform="translate(765,712)"/>
<path d="M0 0 C0.97608217 2.92824652 1.08226668 4.95613276 1 8 C1.66 8.33 2.32 8.66 3 9 C2.38125 9.12375 1.7625 9.2475 1.125 9.375 C-1.19120832 9.87197356 -1.19120832 9.87197356 -3 12 C-3.08090971 10.37581255 -3.13914995 8.75048255 -3.1875 7.125 C-3.22230469 6.22007812 -3.25710938 5.31515625 -3.29296875 4.3828125 C-3.19628906 3.59648438 -3.09960938 2.81015625 -3 2 C-2.01 1.34 -1.02 0.68 0 0 Z " fill="#BA0506" transform="translate(668,721)"/>
<path d="M0 0 C0 0.33 0 0.66 0 1 C-2.97 1 -5.94 1 -9 1 C-9 1.66 -9 2.32 -9 3 C-7.35 3 -5.7 3 -4 3 C-4 3.33 -4 3.66 -4 4 C-6.64 4.66 -9.28 5.32 -12 6 C-12.33 4.68 -12.66 3.36 -13 2 C-8.3683343 -1.61848883 -5.49434694 -1.02436977 0 0 Z " fill="#B62328" transform="translate(926,715)"/>
<path d="M0 0 C3 1 3 1 4.1875 2.625 C5.29470524 5.86144609 5.25139764 8.60613185 5 12 C4.34 12.66 3.68 13.32 3 14 C2.8046875 11.94921875 2.609375 9.8984375 2.4140625 7.84765625 C2.27742188 7.23792969 2.14078125 6.62820313 2 6 C1.34 5.67 0.68 5.34 0 5 C0.33 4.67 0.66 4.34 1 4 C0.34 3.34 -0.32 2.68 -1 2 C-0.67 1.34 -0.34 0.68 0 0 Z " fill="#F9D5D0" transform="translate(1082,721)"/>
<path d="M0 0 C0.66 0.66 1.32 1.32 2 2 C-1.3 2 -4.6 2 -8 2 C-8.33 3.32 -8.66 4.64 -9 6 C-9.66 6 -10.32 6 -11 6 C-11 6.66 -11 7.32 -11 8 C-11.66 8 -12.32 8 -13 8 C-12.68151851 5.02750614 -11.96374181 3.96160897 -9.875 1.75 C-6.30328134 -0.42408962 -4.11459835 -0.46580359 0 0 Z " fill="#FEDDD6" transform="translate(1080,719)"/>
<path d="M0 0 C0.33 1.32 0.66 2.64 1 4 C5.95 4 10.9 4 16 4 C16.33 3.01 16.66 2.02 17 1 C17.33 2.32 17.66 3.64 18 5 C11.4 5 4.8 5 -2 5 C-1.34 3.35 -0.68 1.7 0 0 Z " fill="#FDDED6" transform="translate(671,722)"/>
<path d="M0 0 C1.45945288 0.08708669 2.91765868 0.19526907 4.375 0.3125 C5.59316406 0.39951172 5.59316406 0.39951172 6.8359375 0.48828125 C9 1 9 1 11 4 C11.125 6.6875 11.125 6.6875 11 9 C10.29875 8.236875 9.5975 7.47375 8.875 6.6875 C6.03647396 4.03409522 3.53050949 2.55999257 0 1 C0 0.67 0 0.34 0 0 Z " fill="#FDE0DA" transform="translate(683,714)"/>
<path d="M0 0 C2.62187494 1.04874998 3.79371361 1.64931313 5.25 4.125 C5.4975 4.74375 5.745 5.3625 6 6 C5.01 6 4.02 6 3 6 C2.67 6.66 2.34 7.32 2 8 C0.35 6.35 -1.3 4.7 -3 3 C-2.01 2.67 -1.02 2.34 0 2 C0 1.34 0 0.68 0 0 Z " fill="#BA2224" transform="translate(686,716)"/>
<path d="M0 0 C2.64 0 5.28 0 8 0 C8 1.32 8 2.64 8 4 C5.36 4 2.72 4 0 4 C0 2.68 0 1.36 0 0 Z " fill="#B3171D" transform="translate(1010,715)"/>
<path d="M0 0 C0.66 0.33 1.32 0.66 2 1 C0.73046875 2.49739583 -0.5390625 3.99479167 -1.80859375 5.4921875 C-3.0878152 7.00594079 -3.0878152 7.00594079 -4 9 C-4.66 9 -5.32 9 -6 9 C-5.67 9.99 -5.34 10.98 -5 12 C-6.65 12.66 -8.3 13.32 -10 14 C-7.2167907 8.56385928 -4.59216906 4.06734974 0 0 Z " fill="#1F1F1F" transform="translate(690,603)"/>
<path d="M0 0 C0.763125 0.639375 1.52625 1.27875 2.3125 1.9375 C6.04309216 4.80051259 8.61961258 5.12182321 13.1875 5.0625 C14.08855469 5.05347656 14.98960938 5.04445313 15.91796875 5.03515625 C16.94857422 5.01775391 16.94857422 5.01775391 18 5 C17.67 5.66 17.34 6.32 17 7 C15.25008666 7.02715383 13.50005055 7.04646551 11.75 7.0625 C10.28820313 7.07990234 10.28820313 7.07990234 8.796875 7.09765625 C6.29179911 7.01018852 4.33117312 6.90255596 2 6 C0 3 0 3 0 0 Z " fill="#FEE2DD" transform="translate(1064,739)"/>
<path d="M0 0 C0.66 0.33 1.32 0.66 2 1 C1.01 2.485 1.01 2.485 0 4 C-0.99 3.67 -1.98 3.34 -3 3 C-2.01 2.01 -1.02 1.02 0 0 Z M-5 4 C-4.34 4.33 -3.68 4.66 -3 5 C-4.58358642 8.16717283 -5.45263699 9.73268318 -8.6875 11.3125 C-9.450625 11.539375 -10.21375 11.76625 -11 12 C-9.02 9.36 -7.04 6.72 -5 4 Z " fill="#DADADA" transform="translate(960,612)"/>
<path d="M0 0 C4.29 0.66 8.58 1.32 13 2 C13 1.34 13 0.68 13 0 C13.99 0.33 14.98 0.66 16 1 C11.92081084 3.96668302 9.01742187 4.63858096 4 4 C2.68 2.68 1.36 1.36 0 0 Z " fill="#FDD9CE" transform="translate(819,736)"/>
<path d="M0 0 C1.65 0.33 3.3 0.66 5 1 C4.67 1.99 4.34 2.98 4 4 C3.01 4.33 2.02 4.66 1 5 C1.33 8.63 1.66 12.26 2 16 C0 15 0 15 -1 12 C-1.09287771 10.31454276 -1.12997204 8.625507 -1.125 6.9375 C-1.12757813 6.05964844 -1.13015625 5.18179688 -1.1328125 4.27734375 C-1 2 -1 2 0 0 Z " fill="#BF2222" transform="translate(1025,722)"/>
<path d="M0 0 C0 0.99 0 1.98 0 3 C-0.66 3 -1.32 3 -2 3 C-2.33 3.99 -2.66 4.98 -3 6 C-3.33 4.68 -3.66 3.36 -4 2 C-5.65 2 -7.3 2 -9 2 C-8 0 -8 0 -6.1875 -0.6875 C-3.81180233 -1.02688538 -2.26664171 -0.72856341 0 0 Z " fill="#F7DDD4" transform="translate(652,713)"/>
<path d="M0 0 C1.67542976 0.28604898 3.34385343 0.61781233 5 1 C4.67 2.32 4.34 3.64 4 5 C2.68 5.33 1.36 5.66 0 6 C-0.38218767 4.34385343 -0.71395102 2.67542976 -1 1 C-0.67 0.67 -0.34 0.34 0 0 Z " fill="#BD2A31" transform="translate(943,704)"/>
<path d="M0 0 C0 0.99 0 1.98 0 3 C-3.63 3.33 -7.26 3.66 -11 4 C-11 3.01 -11 2.02 -11 1 C-3.375 0 -3.375 0 0 0 Z " fill="#C6050C" transform="translate(841,727)"/>
<path d="M0 0 C3.96 0.33 7.92 0.66 12 1 C11.67 1.99 11.34 2.98 11 4 C9.54119891 3.85892253 8.08296449 3.71197585 6.625 3.5625 C5.40683594 3.44068359 5.40683594 3.44068359 4.1640625 3.31640625 C2 3 2 3 0 2 C0 1.34 0 0.68 0 0 Z " fill="#C10406" transform="translate(1068,740)"/>
<path d="M0 0 C2.30122818 1.72592113 3.83207557 3.02955298 4.3359375 5.94140625 C4.40673863 9.78590748 4.15816291 11.76275563 2 15 C0.53273202 11.18510326 1.56663581 8.70988378 3 5 C0.525 4.01 0.525 4.01 -2 3 C-1.34 2.67 -0.68 2.34 0 2 C0 1.34 0 0.68 0 0 Z " fill="#FACAC9" transform="translate(723,721)"/>
<path d="M0 0 C1.98 0 3.96 0 6 0 C5.67 1.65 5.34 3.3 5 5 C3.02 5 1.04 5 -1 5 C-0.67 3.35 -0.34 1.7 0 0 Z " fill="#C71C25" transform="translate(1114,714)"/>
<path d="M0 0 C2.97 0 5.94 0 9 0 C10 4 10 4 9 6 C6.03 6 3.06 6 0 6 C0 5.67 0 5.34 0 5 C2.31 5 4.62 5 7 5 C7 3.68 7 2.36 7 1 C4.69 1 2.38 1 0 1 C0 0.67 0 0.34 0 0 Z " fill="#FDD6D3" transform="translate(752,714)"/>
<path d="M0 0 C2.31 0.33 4.62 0.66 7 1 C6.67 3.64 6.34 6.28 6 9 C3.36 9 0.72 9 -2 9 C-2 8.67 -2 8.34 -2 8 C0.31 8 2.62 8 5 8 C4.67 6.35 4.34 4.7 4 3 C2.35 2.67 0.7 2.34 -1 2 C-0.67 1.34 -0.34 0.68 0 0 Z " fill="#FBE8E5" transform="translate(654,712)"/>
<path d="M0 0 C1 3 1 3 1 5 C0.01 5.495 0.01 5.495 -1 6 C-1 8.97 -1 11.94 -1 15 C-3.51012963 12.48987037 -3.29721609 11.53194763 -3.3125 8.0625 C-3.32925781 7.18722656 -3.34601562 6.31195312 -3.36328125 5.41015625 C-2.93939398 2.59791488 -2.18325915 1.74545521 0 0 Z " fill="#FDDEDA" transform="translate(710,721)"/>
<path d="M0 0 C0 3.3 0 6.6 0 10 C-0.99 10.495 -0.99 10.495 -2 11 C-3.1577506 7.52674819 -3.06866652 4.63932552 -3 1 C-1 0 -1 0 0 0 Z " fill="#C6040C" transform="translate(609,724)"/>
<path d="M0 0 C0.99 0.33 1.98 0.66 3 1 C3.144375 2.11375 3.28875 3.2275 3.4375 4.375 C3.78372035 7.82142047 3.78372035 7.82142047 5 10 C4.34 10.66 3.68 11.32 3 12 C2.34 11.34 1.68 10.68 1 10 C1.375 6.375 1.375 6.375 2 3 C1.34 3 0.68 3 0 3 C0 2.01 0 1.02 0 0 Z " fill="#FCF7F4" transform="translate(694,722)"/>
<path d="M0 0 C0.90105469 0.11085938 1.80210937 0.22171875 2.73046875 0.3359375 C3.76107422 0.47902344 3.76107422 0.47902344 4.8125 0.625 C4.8125 0.955 4.8125 1.285 4.8125 1.625 C3.1625 1.625 1.5125 1.625 -0.1875 1.625 C-0.5175 2.945 -0.8475 4.265 -1.1875 5.625 C-4.6525 3.645 -4.6525 3.645 -8.1875 1.625 C-4.73535147 -0.67643236 -3.95270676 -0.51333854 0 0 Z " fill="#FEDCD6" transform="translate(727.1875,713.375)"/>
<path d="M0 0 C0.66 0.66 1.32 1.32 2 2 C0 4 0 4 -2.1640625 4.1953125 C-3.38222656 4.16050781 -3.38222656 4.16050781 -4.625 4.125 C-5.44226562 4.10695313 -6.25953125 4.08890625 -7.1015625 4.0703125 C-7.72804688 4.04710937 -8.35453125 4.02390625 -9 4 C-9.33 3.34 -9.66 2.68 -10 2 C-8.37828761 1.61102839 -6.75245075 1.23921702 -5.125 0.875 C-4.22007813 0.66617188 -3.31515625 0.45734375 -2.3828125 0.2421875 C-1.20332031 0.12230469 -1.20332031 0.12230469 0 0 Z " fill="#FCE3D7" transform="translate(1081,736)"/>
<path d="M0 0 C0.66 0.33 1.32 0.66 2 1 C1.52797514 5.24822374 -0.96655518 7.19989709 -4 10 C-4.33 9.34 -4.66 8.68 -5 8 C-4.34 8 -3.68 8 -3 8 C-2.87625 7.236875 -2.7525 6.47375 -2.625 5.6875 C-2 3 -2 3 0 0 Z " fill="#F2FEFE" transform="translate(1078,728)"/>
<path d="M0 0 C2.31 0 4.62 0 7 0 C7 1.32 7 2.64 7 4 C4.69 4 2.38 4 0 4 C0 2.68 0 1.36 0 0 Z " fill="#AE1118" transform="translate(999,715)"/>
<path d="M0 0 C1.98 0.495 1.98 0.495 4 1 C3.67 2.65 3.34 4.3 3 6 C1.68 5.67 0.36 5.34 -1 5 C-0.67 3.35 -0.34 1.7 0 0 Z " fill="#B22026" transform="translate(768,704)"/>
<path d="M0 0 C0.94875 0.66 1.8975 1.32 2.875 2 C7.46035076 4.67400332 11.83628477 4.37403169 17 4 C16.67 4.66 16.34 5.32 16 6 C9.86946489 6.32712342 5.37330889 6.39366878 0 3 C0 2.01 0 1.02 0 0 Z " fill="#FDD9D5" transform="translate(609,740)"/>
<path d="M0 0 C0.33 0.99 0.66 1.98 1 3 C-1.64 3.33 -4.28 3.66 -7 4 C-7.66 3.01 -8.32 2.02 -9 1 C-2.25 0 -2.25 0 0 0 Z " fill="#CA0309" transform="translate(831,740)"/>
<path d="M0 0 C-0.33 1.32 -0.66 2.64 -1 4 C-1.33 3.34 -1.66 2.68 -2 2 C-3.98 2.99 -3.98 2.99 -6 4 C-6 3.34 -6 2.68 -6 2 C-8.31 1.67 -10.62 1.34 -13 1 C-13 0.67 -13 0.34 -13 0 C-8.37078475 -1.0161692 -4.65537393 -0.83796731 0 0 Z " fill="#C83738" transform="translate(892,740)"/>
<path d="M0 0 C0.66 0.33 1.32 0.66 2 1 C2 2.98 2 4.96 2 7 C-0.97 7 -3.94 7 -7 7 C-7 6.67 -7 6.34 -7 6 C-6.21625 5.938125 -5.4325 5.87625 -4.625 5.8125 C-3.75875 5.544375 -2.8925 5.27625 -2 5 C-0.62533375 2.52363988 -0.62533375 2.52363988 0 0 Z " fill="#C60208" transform="translate(1051,723)"/>
<path d="M0 0 C1 2 1 2 0.44140625 3.9453125 C0.15136719 4.66460938 -0.13867188 5.38390625 -0.4375 6.125 C-0.72496094 6.84945312 -1.01242187 7.57390625 -1.30859375 8.3203125 C-1.53675781 8.87460937 -1.76492188 9.42890625 -2 10 C-2.66 10 -3.32 10 -4 10 C-4.93423645 6.98968256 -5.04449911 6.13349732 -4 3 C-1.9375 1.3125 -1.9375 1.3125 0 0 Z " fill="#FBD7D2" transform="translate(796,726)"/>
<path d="M0 0 C0.99 0.495 0.99 0.495 2 1 C2 2.32 2 3.64 2 5 C2.66 5 3.32 5 4 5 C3.67 6.98 3.34 8.96 3 11 C0.39665076 8.28817788 0.00543309 7.10866187 -0.1875 3.25 C-0.125625 2.1775 -0.06375 1.105 0 0 Z " fill="#C30C0E" transform="translate(784,720)"/>
<path d="M0 0 C1.32 0 2.64 0 4 0 C3.67 0.99 3.34 1.98 3 3 C2.67 3 2.34 3 2 3 C1.67 7.29 1.34 11.58 1 16 C0.67 16 0.34 16 0 16 C0 10.72 0 5.44 0 0 Z " fill="#A81116" transform="translate(892,715)"/>
<path d="M0 0 C2.31 0 4.62 0 7 0 C6.01 0.495 6.01 0.495 5 1 C4.34786708 3.02463255 4.34786708 3.02463255 4 5 C2.35 4.67 0.7 4.34 -1 4 C-0.67 2.68 -0.34 1.36 0 0 Z " fill="#FCF9F3" transform="translate(652,721)"/>
<path d="M0 0 C0.598125 0.226875 1.19625 0.45375 1.8125 0.6875 C1.1525 0.6875 0.4925 0.6875 -0.1875 0.6875 C-0.5896875 1.55375 -0.5896875 1.55375 -1 2.4375 C-2.20469859 4.7200868 -3.59548115 6.6612942 -5.1875 8.6875 C-5.55003776 3.24943353 -5.55003776 3.24943353 -3.9375 0.75 C-2.1875 -0.3125 -2.1875 -0.3125 0 0 Z " fill="#FBD7D1" transform="translate(669.1875,716.3125)"/>
<path d="M0 0 C2.31 0.66 4.62 1.32 7 2 C2.25 6.875 2.25 6.875 0 8 C-0.38063221 5.6739143 -0.71269945 3.33944736 -1 1 C-0.67 0.67 -0.34 0.34 0 0 Z " fill="#F9CFC5" transform="translate(911,712)"/>
<path d="M0 0 C0.33 0 0.66 0 1 0 C1 3.3 1 6.6 1 10 C2.32 9.67 3.64 9.34 5 9 C5.99 10.485 5.99 10.485 7 12 C4.69 12 2.38 12 0 12 C0 8.04 0 4.08 0 0 Z " fill="#FEE6E3" transform="translate(968,703)"/>
<path d="M0 0 C1.65 0 3.3 0 5 0 C5 0.99 5 1.98 5 3 C2 5 2 5 -0.1875 4.625 C-0.785625 4.41875 -1.38375 4.2125 -2 4 C-1.34 2.68 -0.68 1.36 0 0 Z " fill="#111111" transform="translate(954,611)"/>
<path d="M0 0 C-1.34988317 4.04964951 -3.44179062 4.74190559 -7 7 C-8.68083079 8.31543279 -10.3524116 9.64316249 -12 11 C-10.5611898 7.612801 -8.77880501 5.6405896 -6 3.25 C-5.29875 2.63640625 -4.5975 2.0228125 -3.875 1.390625 C-2 0 -2 0 0 0 Z " fill="#272727" transform="translate(842,596)"/>
<path d="M0 0 C0.66 0 1.32 0 2 0 C2 4.95 2 9.9 2 15 C1.67 15 1.34 15 1 15 C0.63911385 12.68853911 0.28645809 10.37579171 -0.0625 8.0625 C-0.25972656 6.77472656 -0.45695313 5.48695313 -0.66015625 4.16015625 C-0.82837891 2.59587891 -0.82837891 2.59587891 -1 1 C-0.67 0.67 -0.34 0.34 0 0 Z " fill="#C70302" transform="translate(928,721)"/>
<path d="M0 0 C1 3 1 3 -0.4375 6.1875 C-1.2109375 7.5796875 -1.2109375 7.5796875 -2 9 C-2.33 7.68 -2.66 6.36 -3 5 C-3.66 5 -4.32 5 -5 5 C-5 4.01 -5 3.02 -5 2 C-2 0 -2 0 0 0 Z " fill="#C91114" transform="translate(914,719)"/>
<path d="M0 0 C7.42857143 -0.28571429 7.42857143 -0.28571429 11 2 C11 2.33 11 2.66 11 3 C7.04 2.67 3.08 2.34 -1 2 C-0.67 1.34 -0.34 0.68 0 0 Z " fill="#C02B30" transform="translate(1131,714)"/>
<path d="M0 0 C0.66 0.33 1.32 0.66 2 1 C1.67 2.32 1.34 3.64 1 5 C-0.65 5 -2.3 5 -4 5 C-4 4.01 -4 3.02 -4 2 C-2.125 0.9375 -2.125 0.9375 0 0 Z " fill="#EEFDFD" transform="translate(1060,737)"/>
<path d="M0 0 C0.94875 0.04125 1.8975 0.0825 2.875 0.125 C1.39 2.6 1.39 2.6 -0.125 5.125 C-0.455 4.465 -0.785 3.805 -1.125 3.125 C-3.14963255 2.47286708 -3.14963255 2.47286708 -5.125 2.125 C-3.125 0.125 -3.125 0.125 0 0 Z " fill="#B72526" transform="translate(690.125,735.875)"/>
<path d="M0 0 C0.33 0 0.66 0 1 0 C1 3.3 1 6.6 1 10 C-0.32 10 -1.64 10 -3 10 C-2.01 6.7 -1.02 3.4 0 0 Z " fill="#CD0204" transform="translate(1089,728)"/>
<path d="M0 0 C1.32 0.33 2.64 0.66 4 1 C3.67 2.65 3.34 4.3 3 6 C0.69 6 -1.62 6 -4 6 C-4.33 4.68 -4.66 3.36 -5 2 C-4.01 2.495 -4.01 2.495 -3 3 C-3 3.66 -3 4.32 -3 5 C-1.35 5 0.3 5 2 5 C1.34 3.35 0.68 1.7 0 0 Z " fill="#F5BFC0" transform="translate(632,720)"/>
<path d="M0 0 C1.33998047 0.31324219 1.33998047 0.31324219 2.70703125 0.6328125 C3.60808594 0.83648438 4.50914062 1.04015625 5.4375 1.25 C6.46810547 1.50136719 6.46810547 1.50136719 7.51953125 1.7578125 C7.51953125 2.0878125 7.51953125 2.4178125 7.51953125 2.7578125 C5.84890625 2.974375 5.84890625 2.974375 4.14453125 3.1953125 C0.69811078 3.54153285 0.69811078 3.54153285 -1.48046875 4.7578125 C-1.48046875 4.0978125 -1.48046875 3.4378125 -1.48046875 2.7578125 C-2.80046875 2.4278125 -4.12046875 2.0978125 -5.48046875 1.7578125 C-2.48046875 -0.2421875 -2.48046875 -0.2421875 0 0 Z " fill="#BA2522" transform="translate(821.48046875,716.2421875)"/>
<path d="M0 0 C1.32 1.32 2.64 2.64 4 4 C3 7 3 7 1 9 C-1.09230769 4.56923077 -1.09230769 4.56923077 -0.625 1.6875 C-0.41875 1.130625 -0.2125 0.57375 0 0 Z " fill="#FCE2DD" transform="translate(786,714)"/>
<path d="M0 0 C3.96 0.99 3.96 0.99 8 2 C4.3558226 4.4294516 2.28758728 4.16179575 -2 4 C-2 3.34 -2 2.68 -2 2 C-1.34 2 -0.68 2 0 2 C0 1.34 0 0.68 0 0 Z " fill="#CB0309" transform="translate(749,714)"/>
<path d="M0 0 C0.66 1.32 1.32 2.64 2 4 C-0.3125 5.5625 -0.3125 5.5625 -3 7 C-3.99 6.67 -4.98 6.34 -6 6 C-4 4 -2 2 0 0 Z " fill="#FCDED8" transform="translate(693,736)"/>
<path d="M0 0 C0.66 0.66 1.32 1.32 2 2 C1.9765625 4.1640625 1.9765625 4.1640625 1.625 6.625 C1.51414062 7.44226563 1.40328125 8.25953125 1.2890625 9.1015625 C1.19367187 9.72804688 1.09828125 10.35453125 1 11 C0.67 11 0.34 11 0 11 C-0.33 8.69 -0.66 6.38 -1 4 C-1.66 4 -2.32 4 -3 4 C-2.67 3.01 -2.34 2.02 -2 1 C-1.34 0.67 -0.68 0.34 0 0 Z " fill="#B6191A" transform="translate(609,721)"/>
<path d="M0 0 C0.99 0.33 1.98 0.66 3 1 C3.6875 3.0625 3.6875 3.0625 4 5 C1.36749612 6.31625194 0.19820944 5.74813658 -2.625 5.0625 C-3.44226562 4.86785156 -4.25953125 4.67320312 -5.1015625 4.47265625 C-6.04128906 4.23869141 -6.04128906 4.23869141 -7 4 C-7 3.67 -7 3.34 -7 3 C-4.69 3 -2.38 3 0 3 C0 2.01 0 1.02 0 0 Z " fill="#B72829" transform="translate(1080,715)"/>
<path d="M0 0 C2.31 0 4.62 0 7 0 C7 1.32 7 2.64 7 4 C4.69 4 2.38 4 0 4 C0.66 3.34 1.32 2.68 2 2 C1.34 1.34 0.68 0.68 0 0 Z " fill="#A9161B" transform="translate(752,715)"/>
<path d="M0 0 C0.33 0.66 0.66 1.32 1 2 C1.99 2 2.98 2 4 2 C4 3.65 4 5.3 4 7 C3.01 7.33 2.02 7.66 1 8 C0.67 5.36 0.34 2.72 0 0 Z " fill="#C30407" transform="translate(791,735)"/>
<path d="M0 0 C0.33 1.32 0.66 2.64 1 4 C3.97 4 6.94 4 10 4 C10 4.33 10 4.66 10 5 C6.04 5 2.08 5 -2 5 C-1.34 3.35 -0.68 1.7 0 0 Z " fill="#FDE2D6" transform="translate(1031,722)"/>
<path d="M0 0 C0.75 1.75 0.75 1.75 1 4 C-0.9375 6.25 -0.9375 6.25 -3 8 C-3 6.68 -3 5.36 -3 4 C-3.66 3.67 -4.32 3.34 -5 3 C-2.25 0 -2.25 0 0 0 Z " fill="#B92125" transform="translate(1130,716)"/>
<path d="M0 0 C0.33 0.66 0.66 1.32 1 2 C3.02463255 2.65213292 3.02463255 2.65213292 5 3 C5 3.66 5 4.32 5 5 C3.02 5 1.04 5 -1 5 C-1.33 3.68 -1.66 2.36 -2 1 C-1.34 0.67 -0.68 0.34 0 0 Z " fill="#EFFDF9" transform="translate(1051,713)"/>
<path d="M0 0 C0.66 0 1.32 0 2 0 C2.66 2.31 3.32 4.62 4 7 C3.34 7 2.68 7 2 7 C1.67 7.66 1.34 8.32 1 9 C1 8.34 1 7.68 1 7 C0.01 7.33 -0.98 7.66 -2 8 C-2.33 7.34 -2.66 6.68 -3 6 C-2.01 5.67 -1.02 5.34 0 5 C0 3.35 0 1.7 0 0 Z " fill="#FBDED9" transform="translate(771,704)"/>
<path d="M0 0 C0 1.65 0 3.3 0 5 C-1.875 5.625 -1.875 5.625 -4 6 C-4.66 5.34 -5.32 4.68 -6 4 C-2.25 0 -2.25 0 0 0 Z " fill="#E0E0E0" transform="translate(760,679)"/>
<path d="M0 0 C-0.66 1.32 -1.32 2.64 -2 4 C-3.98 4 -5.96 4 -8 4 C-3.375 0 -3.375 0 0 0 Z " fill="#FDE1D6" transform="translate(634,740)"/>
<path d="M0 0 C1.98 0 3.96 0 6 0 C5.1875 1.9375 5.1875 1.9375 4 4 C3.01 4.33 2.02 4.66 1 5 C0.67 3.35 0.34 1.7 0 0 Z " fill="#B21718" transform="translate(1047,736)"/>
<path d="M0 0 C1.65 1.65 3.3 3.3 5 5 C4.01 5 3.02 5 2 5 C1.67 5.66 1.34 6.32 1 7 C0.01 5.68 -0.98 4.36 -2 3 C-1.34 3 -0.68 3 0 3 C0 2.01 0 1.02 0 0 Z " fill="#B50F11" transform="translate(669,735)"/>
<path d="M0 0 C0.66 0 1.32 0 2 0 C3.0625 2.375 3.0625 2.375 4 5 C3.67 5.66 3.34 6.32 3 7 C2.01 6.67 1.02 6.34 0 6 C0 4.02 0 2.04 0 0 Z " fill="#CF0204" transform="translate(813,725)"/>
<path d="M0 0 C1.32 0.33 2.64 0.66 4 1 C3.071875 1.3403125 3.071875 1.3403125 2.125 1.6875 C-0.61410209 3.37929835 -1.05024472 4.99244161 -2 8 C-2.6875 6.25 -2.6875 6.25 -3 4 C-1.5625 1.75 -1.5625 1.75 0 0 Z " fill="#FBD2CB" transform="translate(1027,716)"/>
<path d="M0 0 C1.65 0 3.3 0 5 0 C4.34 1.32 3.68 2.64 3 4 C1.68 4 0.36 4 -1 4 C-0.67 2.68 -0.34 1.36 0 0 Z " fill="#A72026" transform="translate(801,715)"/>
<path d="M0 0 C-0.33 0.66 -0.66 1.32 -1 2 C-2.32 2 -3.64 2 -5 2 C-5 2.66 -5 3.32 -5 4 C-6.32 4 -7.64 4 -9 4 C-9 3.34 -9 2.68 -9 2 C-5.86501708 0.14223235 -3.62528568 -0.20140476 0 0 Z " fill="#CE060E" transform="translate(1078,716)"/>
<path d="M0 0 C0 0.33 0 0.66 0 1 C-1.65 1 -3.3 1 -5 1 C-5.33 2.32 -5.66 3.64 -6 5 C-7.32 3.68 -8.64 2.36 -10 1 C-6.52674819 -0.1577506 -3.63932552 -0.06866652 0 0 Z " fill="#FED4D5" transform="translate(1092,714)"/>
<path d="M0 0 C1.11375 0.556875 1.11375 0.556875 2.25 1.125 C2.25 2.115 2.25 3.105 2.25 4.125 C-0.72 3.135 -3.69 2.145 -6.75 1.125 C-2.75 -0.875 -2.75 -0.875 0 0 Z " fill="#FBD6D1" transform="translate(628.75,713.875)"/>
<path d="M0 0 C3.8063457 0.67170806 7.35206816 1.72746564 11 3 C11 3.33 11 3.66 11 4 C9.54054712 3.91291331 8.08234132 3.80473093 6.625 3.6875 C5.81289063 3.62949219 5.00078125 3.57148437 4.1640625 3.51171875 C2 3 2 3 0 0 Z " fill="#BE3533" transform="translate(671,741)"/>
<path d="M0 0 C3.3 0.33 6.6 0.66 10 1 C10 1.33 10 1.66 10 2 C6.94152152 2.54372951 4.11227195 3 1 3 C0.67 2.01 0.34 1.02 0 0 Z " fill="#BF0E17" transform="translate(819,739)"/>
<path d="M0 0 C1.32 0 2.64 0 4 0 C3.67 1.65 3.34 3.3 3 5 C2.01 4.67 1.02 4.34 0 4 C0 2.68 0 1.36 0 0 Z " fill="#CE0201" transform="translate(1123,720)"/>
<path d="M0 0 C0.33 0.99 0.66 1.98 1 3 C-0.9375 5.6875 -0.9375 5.6875 -3 8 C-3.1875 5.125 -3.1875 5.125 -3 2 C-2.01 1.34 -1.02 0.68 0 0 Z " fill="#C8050D" transform="translate(668,721)"/>
<path d="M0 0 C1.27875 0.103125 2.5575 0.20625 3.875 0.3125 C4.95394531 0.39951172 4.95394531 0.39951172 6.0546875 0.48828125 C8 1 8 1 10 4 C9.01 4.495 9.01 4.495 8 5 C6.0546875 4.22265625 6.0546875 4.22265625 3.875 3.0625 C3.15054688 2.68222656 2.42609375 2.30195312 1.6796875 1.91015625 C1.12539063 1.60980469 0.57109375 1.30945313 0 1 C0 0.67 0 0.34 0 0 Z " fill="#FACEC9" transform="translate(830,714)"/>
<path d="M0 0 C0.33 1.32 0.66 2.64 1 4 C2.65 4 4.3 4 6 4 C6 4.33 6 4.66 6 5 C2.7 4.67 -0.6 4.34 -4 4 C-2.68 2.68 -1.36 1.36 0 0 Z " fill="#FED0CE" transform="translate(1086,740)"/>
<path d="M0 0 C0.66 0.99 1.32 1.98 2 3 C0.6875 4.5 0.6875 4.5 -1 6 C-1.99 6 -2.98 6 -4 6 C-4 5.34 -4 4.68 -4 4 C-3.34 4 -2.68 4 -2 4 C-1.34 2.68 -0.68 1.36 0 0 Z " fill="#FBDDD9" transform="translate(1053,736)"/>
<path d="M0 0 C1.98 0 3.96 0 6 0 C5.01 1.98 4.02 3.96 3 6 C2 4 1 2 0 0 Z " fill="#B4262B" transform="translate(628,735)"/>
<path d="M0 0 C1.74627478 2.61941217 2.38722388 4.03824877 3 7 C2.01 6.67 1.02 6.34 0 6 C-0.33 6.99 -0.66 7.98 -1 9 C-0.67 6.03 -0.34 3.06 0 0 Z " fill="#C6222D" transform="translate(788,725)"/>
<path d="M0 0 C1.99097846 2.98646769 2.94124926 5.59687262 4 9 C3.01 9 2.02 9 1 9 C-1.125 2.25 -1.125 2.25 0 0 Z " fill="#FCCACA" transform="translate(780,717)"/>
<path d="M0 0 C1.32 0.66 2.64 1.32 4 2 C2.68 3.32 1.36 4.64 0 6 C-0.99 5.01 -1.98 4.02 -3 3 C-2.01 2.67 -1.02 2.34 0 2 C0 1.34 0 0.68 0 0 Z " fill="#C02D35" transform="translate(1046,716)"/>
<path d="M0 0 C1.32 0 2.64 0 4 0 C4.66 0.99 5.32 1.98 6 3 C6.66 3.33 7.32 3.66 8 4 C7.67 4.99 7.34 5.98 7 7 C5.68 6.34 4.36 5.68 3 5 C3 3.68 3 2.36 3 1 C2.01 0.67 1.02 0.34 0 0 Z " fill="#BE1C26" transform="translate(644,715)"/>
</svg>
